<svg width="800" height="261" fill="none" xmlns="http://www.w3.org/2000/svg"><path d="M165.2 51.1c-8.5-9.7-24-13.9-43.6-13.9H64.3a8.2 8.2 0 00-8 7l-24 151.4a5 5 0 005 5.7h35.3l8.9-56.4-.3 1.8a8.2 8.2 0 018-7H106c33 0 58.9-13.4 66.4-52.2l.6-3.4c2.2-14.3 0-24.1-7.8-33" fill="#003087"/><path d="M597.8 123.2c-2.1 14.2-13 14.2-23.4 14.2h-6l4.2-26.5a3.3 3.3 0 013.2-2.8h2.8c7.1 0 13.9 0 17.3 4 2.1 2.5 2.7 6.1 2 11.1zm-4.5-37h-39.5a5.5 5.5 0 00-5.5 4.6l-16 101.5a3.3 3.3 0 003.3 3.8H556c1.9 0 3.5-1.3 3.8-3.2l4.5-28.8a5.5 5.5 0 015.4-4.7h12.5c26 0 41.1-12.6 45-37.6 1.8-11 .1-19.5-5-25.5-5.6-6.7-15.6-10.2-28.8-10.2" fill="#009CDE"/><path d="M316 123.2c-2.2 14.2-13 14.2-23.5 14.2h-6l4.2-26.5a3.3 3.3 0 013.3-2.8h2.7c7.2 0 13.9 0 17.4 4 2 2.5 2.7 6.1 1.9 11.1zm-4.6-37H272c-2.7 0-5 2-5.4 4.6l-16 101.5a3.3 3.3 0 003.3 3.8h18.8c2.7 0 5-2 5.5-4.6l4.3-27.4a5.5 5.5 0 015.4-4.7h12.5c26 0 41-12.6 45-37.6 1.7-11 0-19.5-5-25.5-5.7-6.7-15.6-10.2-28.9-10.2zm91.8 73.5a21.1 21.1 0 01-21.4 18c-5.5 0-9.9-1.7-12.7-5-2.8-3.4-3.8-8-3-13.3a21.2 21.2 0 0121.2-18.3 16 16 0 0112.7 5.2c2.9 3.4 4 8.1 3.2 13.4zm26.3-37h-18.9a3.3 3.3 0 00-3.2 2.9l-.9 5.3-1.3-2c-4-6-13.2-8-22.3-8a43.5 43.5 0 00-42.3 38.2 35.9 35.9 0 007 29.2c5.8 6.8 14 9.6 23.9 9.6 16.9 0 26.2-10.8 26.2-10.8l-.8 5.2a3.3 3.3 0 003.2 3.8h17c2.7 0 5-2 5.5-4.6l10.2-65a3.3 3.3 0 00-3.3-3.7" fill="#003087"/><path d="M685 159.7a21.1 21.1 0 01-21.3 18c-5.5 0-10-1.7-12.7-5-2.8-3.4-3.9-8-3-13.3a21.2 21.2 0 0121.2-18.3 16 16 0 0112.6 5.2c3 3.4 4 8.1 3.2 13.4zm26.4-37h-19a3.3 3.3 0 00-3.2 2.9l-.8 5.3-1.3-2c-4.1-6-13.3-8-22.4-8a43.6 43.6 0 00-42.2 38.2 35.9 35.9 0 007 29.2c5.8 6.8 14 9.6 23.9 9.6 16.8 0 26.2-10.8 26.2-10.8l-.9 5.2a3.3 3.3 0 003.3 3.8h17c2.7 0 5-2 5.4-4.6l10.3-65a3.3 3.3 0 00-3.3-3.7" fill="#009CDE"/><path d="M530.3 122.8h-19c-1.8 0-3.5.9-4.5 2.4l-26.3 38.7-11-37.2a5.5 5.5 0 00-5.4-4h-18.6a3.3 3.3 0 00-3.2 4.4l21 61.6-19.7 27.9a3.3 3.3 0 001 4.7c.5.3 1 .5 1.7.5h19c1.8 0 3.5-.9 4.5-2.4L533 128a3.3 3.3 0 00-2.7-5.2" fill="#003087"/><path d="M733.7 89l-16.2 103.3a3.3 3.3 0 003.2 3.8H737c2.7 0 5-2 5.5-4.6l16-101.5a3.3 3.3 0 00-3.3-3.9H737a3.3 3.3 0 00-3.3 2.8" fill="#009CDE"/><path d="M165.2 51.1c-8.5-9.7-24-13.9-43.6-13.9H64.3a8.2 8.2 0 00-8 7l-24 151.4a5 5 0 005 5.7h35.3l8.9-56.4-.3 1.8a8.2 8.2 0 018-7H106c33 0 58.9-13.4 66.4-52.2l.6-3.4c2.2-14.3 0-24.1-7.8-33" fill="#003087"/><path d="M91 84.3a7.2 7.2 0 017-6h45a94.2 94.2 0 0122 2.7c2.8.7 5.5 1.8 8 3.1 2.2-14.3 0-24.1-7.8-33-8.5-9.7-24-13.9-43.6-13.9H64.3a8.2 8.2 0 00-8 7l-24 151.4a5 5 0 005 5.7h35.3l8.9-56.4L91 84.3z" fill="#003087"/><path d="M173 84.1l-.6 3.4c-7.5 38.8-33.4 52.2-66.4 52.2H89.2a8.2 8.2 0 00-8 7l-8.6 54.6-2.5 15.5a4.3 4.3 0 004.3 5h29.8c3.5 0 6.5-2.6 7-6l.3-1.6 5.7-35.6.3-2a7.2 7.2 0 017-6h4.5c29 0 51.5-11.8 58.1-45.8 2.8-14.2 1.3-26-6-34.4-2.3-2.6-5-4.7-8.1-6.3" fill="#009CDE"/><path d="M165 81a51.8 51.8 0 00-7.3-1.7c-4.5-.7-9.4-1-14.8-1H98.1a7.1 7.1 0 00-7.1 6L81.5 145l-.3 1.8a8.2 8.2 0 018-7H106c33 0 58.9-13.4 66.4-52.2l.6-3.4a40.7 40.7 0 00-8-3.1" fill="#012169"/></svg>