<?xml version="1.0" encoding="UTF-8"?>
<svg xmlns="http://www.w3.org/2000/svg" xmlns:xlink="http://www.w3.org/1999/xlink" width="200px" height="200px" viewBox="0 0 200 200" version="1.1">
	<!-- Generator: Sketch 53.2 (72643) - https://sketchapp.com -->
	<title>476-spei</title>
	<g id="476-spei" stroke="none" stroke-width="1" fill="none" fill-rule="evenodd">
		<rect id="core" fill-opacity="0" x="100" y="100" width="1" height="1"/>
		<g transform="translate(15.000000, 72.000000)" fill-rule="nonzero">
			<path d="M102.235581,1.83689139 C116.860674,1.83689139 131.358427,1.83689139 146.002622,1.83689139 C146.024906,2.19026217 146.066292,2.5659176 146.069476,2.94475655 C146.075843,6.06460674 146.040824,9.18445693 146.094944,12.3011236 C146.110861,13.2434457 145.86573,13.5395131 144.88839,13.5331461 C136.655805,13.4949438 128.423221,13.5108614 120.187453,13.5108614 C118.592509,13.5108614 118.589326,13.5140449 118.589326,15.1535581 C118.589326,17.0031835 118.589326,18.852809 118.589326,20.7024345 C118.589326,22.717603 118.598876,22.7303371 120.674532,22.7303371 C125.462547,22.7303371 130.250562,22.7303371 135.038577,22.7303371 C137.722285,22.7303371 140.405993,22.7621723 143.0897,22.7016854 C143.911049,22.6825843 144.060674,22.9786517 144.051124,23.6981273 C144.019288,26.2735955 144.003371,28.8490637 144.054307,31.4245318 C144.073408,32.306367 143.770974,32.5196629 142.927341,32.5164794 C135.382397,32.4878277 127.840637,32.4973783 120.295693,32.5005618 C118.608427,32.5005618 118.589326,32.5196629 118.589326,34.1941948 C118.589326,36.3717228 118.589326,38.5460674 118.589326,40.7235955 C118.589326,42.8533708 118.589326,42.8533708 120.674532,42.8533708 C129.015356,42.8533708 137.359363,42.8533708 145.700187,42.8533708 C147.116854,42.8533708 147.116854,42.8533708 147.11367,44.2668539 C147.11367,47.3803371 147.11367,50.4970037 147.11367,53.7728464 C146.683895,53.7728464 146.336891,53.7728464 145.989888,53.7728464 C131.772285,53.7728464 117.554682,53.7664794 103.337079,53.788764 C102.464794,53.788764 102.16236,53.5945693 102.16236,52.6586142 C102.191011,36.0820225 102.181461,19.5086142 102.184644,2.93202247 C102.187828,2.61685393 102.213296,2.29531835 102.235581,1.83689139 Z" id="Path" fill="#FF8600"/>
			<path d="M46.7691011,16.2709738 C44.1681648,16.2709738 41.8250936,16.2550562 39.485206,16.2741573 C36.9829588,16.2964419 34.4807116,16.3441948 31.9784644,16.4078652 C31.3831461,16.4237828 31.138015,16.2327715 31.0934457,15.6183521 C30.9024345,13.055618 28.5657303,10.0790262 25.2294007,9.82752809 C22.9054307,9.65243446 20.7342697,9.75749064 18.7350187,11.05 C17.3374532,11.9541199 16.8376404,13.2657303 17.073221,14.8702247 C17.2705993,16.2264045 18.1715356,17.0986891 19.3653558,17.5220974 C21.25,18.1938202 23.188764,18.7222846 25.1243446,19.2475655 C28.2696629,20.1039326 31.4086142,20.9889513 34.5825843,21.714794 C38.2022472,22.5456929 41.417603,24.111985 44.1395131,26.6142322 C46.4252809,28.7153558 47.7846442,31.2940075 48.4149813,34.4043071 C48.8734082,36.6646067 48.7142322,38.8166667 48.2335206,40.9464419 C47.4153558,44.578839 45.6580524,47.8101124 42.6018727,50.0067416 C40.494382,51.5220974 38.1385768,52.8018727 35.7159176,53.7314607 C33.7421348,54.4891386 31.5136704,54.6069288 29.3870787,54.9411985 C28.0691011,55.1481273 26.728839,55.3550562 25.4013109,55.3359551 C21.6447566,55.2786517 17.9327715,54.9284644 14.2621723,53.9670412 C9.42640449,52.7 5.45018727,50.3059925 2.83014981,45.9668539 C1.55992509,43.8689139 0.674906367,41.5990637 0.36928839,39.1350187 C0.359737828,39.0617978 0.356554307,38.9885768 0.340636704,38.9185393 C-0.0923220974,36.8269663 -0.0923220974,36.8110487 2.1011236,36.702809 C6.11554307,36.5054307 10.1331461,36.3526217 14.1475655,36.1265918 C15.0771536,36.0756554 15.4273408,36.3494382 15.4973783,37.2981273 C15.7265918,40.2715356 18.4007491,43.7574906 21.2627341,44.4514981 C23.1983146,44.9194757 25.2898876,45.202809 27.2477528,44.9958801 C29.1865169,44.7921348 31.211236,44.1713483 32.2331461,42.0734082 C33.5511236,39.3674157 32.7838951,36.5468165 30.4280899,35.321161 C28.3810861,34.2546816 26.2003745,33.4110487 24.0101124,32.6629213 C21.2372659,31.7142322 18.4102996,30.9151685 15.5865169,30.128839 C12.3679775,29.2310861 9.35955056,27.9258427 6.74269663,25.8247191 C4.38689139,23.9337079 2.9670412,21.5365169 2.40992509,18.4962547 C1.98333333,16.1754682 2.07247191,13.9024345 2.62958801,11.7249064 C3.39044944,8.73558052 5.10636704,6.23651685 7.70411985,4.43464419 C10.0280899,2.82378277 12.5749064,1.81142322 15.3159176,1.07921348 C19.5945693,-0.0668539326 23.9177903,-0.140074906 28.2250936,0.311985019 C32.067603,0.713108614 35.8464419,1.61086142 39.2432584,3.6928839 C42.0574906,5.41835206 44.0535581,7.77097378 45.1455056,10.8621723 C45.7344569,12.5335206 46.1705993,14.2621723 46.7691011,16.2709738 Z" id="Path" fill="#362E8C"/>
			<path d="M52.8687266,1.66816479 C59.6018727,1.66816479 66.2013109,1.66179775 72.8007491,1.67134831 C76.6464419,1.67453184 80.4985019,1.56947566 84.3346442,1.76048689 C87.7282772,1.92921348 90.8926966,3.00205993 93.4617978,5.36741573 C95.4578652,7.20749064 96.661236,9.52827715 96.9923221,12.2151685 C97.2756554,14.5041199 97.5844569,16.8280899 97.4857678,19.1170412 C97.2151685,25.261236 94.4677903,29.9601124 88.7215356,32.5355805 C86.0441948,33.7357678 83.1376404,34.1941948 80.1960674,34.22603 C76.8215356,34.2642322 73.4470037,34.2642322 70.0756554,34.2164794 C69.1078652,34.2037453 68.8277154,34.538015 68.8340824,35.47397 C68.8691011,41.3507491 68.856367,47.2275281 68.856367,53.1043071 C68.856367,53.3144195 68.856367,53.5245318 68.856367,53.8110487 C63.5080524,53.8110487 58.2297753,53.8110487 52.8687266,53.8110487 C52.8687266,36.4640449 52.8687266,19.1138577 52.8687266,1.66816479 Z M68.8691011,17.770412 C68.8691011,19.4385768 68.8627341,21.1067416 68.8722846,22.7717228 C68.8786517,24.1215356 68.9964419,24.2361423 70.3812734,24.2456929 C71.7597378,24.2552434 73.1477528,24.3571161 74.5102996,24.2202247 C75.9269663,24.0801498 77.3754682,23.8573034 78.7125468,23.3925094 C80.7945693,22.6730337 82.3735955,20.1930712 82.443633,18.1301498 C82.5709738,14.4595506 79.3810861,11.5402622 76.0192884,11.4893258 C74.0264045,11.4606742 72.0303371,11.4988764 70.0406367,11.435206 C69.1078652,11.4065543 68.843633,11.7981273 68.8595506,12.6576779 C68.8977528,14.3640449 68.8691011,16.0672285 68.8691011,17.770412 Z" id="Shape" fill="#362E8C"/>
			<path d="M153.939139,33.0640449 C155.734644,33.0640449 157.463296,33.0640449 159.325655,33.0640449 C159.354307,33.5001873 159.41161,33.9490637 159.414794,34.4011236 C159.424345,35.7445693 159.40206,37.0848315 159.427528,38.4282772 C159.433895,38.7275281 159.583521,39.0235955 159.669476,39.3196629 C159.920974,39.1700375 160.220225,39.0649813 160.417603,38.8644195 C163.336891,35.9037453 166.240262,32.9271536 169.153184,29.9601124 C169.347378,29.7627341 169.576592,29.6035581 169.885393,29.3488764 C169.885393,37.559176 169.885393,45.6262172 169.885393,53.788764 C164.575281,53.788764 159.303371,53.788764 153.942322,53.788764 C153.939139,46.909176 153.939139,40.0136704 153.939139,33.0640449 Z" id="Path" fill="#362E8C"/>
			<path d="M169.684831,25.3217228 C167.520037,23.0359551 165.539888,20.938015 163.550187,18.8464419 C162.477341,17.7194757 161.398127,16.5956929 160.302996,15.4878277 C160.150187,15.3318352 159.895506,15.2745318 159.688577,15.1726592 C159.561236,15.4464419 159.332022,15.7202247 159.322472,15.997191 C159.287453,17.4106742 159.309738,18.8241573 159.312921,20.240824 C159.312921,20.6005618 159.312921,20.9571161 159.312921,21.4346442 C157.667041,21.4346442 156.084831,21.4696629 154.508989,21.3932584 C154.295693,21.3837079 153.948689,20.7979401 153.942322,20.4700375 C153.891386,18.3307116 153.91367,16.1913858 153.91367,14.0520599 C153.91367,10.3177903 153.91367,6.5835206 153.91367,2.84606742 C153.91367,2.29531835 153.821348,1.77958801 154.706367,1.78595506 C159.529401,1.8241573 164.352434,1.8082397 169.175468,1.81460674 C169.315543,1.81460674 169.458801,1.85280899 169.684831,1.88782772 C169.684831,9.60149813 169.684831,17.3024345 169.684831,25.3217228 Z" id="Path" fill="#FF8600"/>
		</g>
	</g>
</svg>
