<svg xmlns="http://www.w3.org/2000/svg" fill="none" viewBox="0 0 800 261"><defs/><path fill="#FF8600" d="M457.54 43.86h146.12c.08 1.17.22 2.43.23 3.7.02 10.41-.1 20.83.08 31.23.05 3.15-.76 4.14-4.03 4.11-27.48-.12-54.97-.07-82.46-.07-5.33 0-5.34.01-5.34 5.48v18.53c0 6.73.03 6.77 6.96 6.77h47.96c8.96 0 17.92.1 26.88-.1 2.74-.06 3.24.93 3.2 3.33-.1 8.6-.15 17.2.02 25.8.06 2.94-.95 3.65-3.76 3.64-25.2-.1-50.37-.06-75.56-.05-5.63 0-5.7.06-5.7 5.65v21.8c0 7.11 0 7.11 6.96 7.11h83.55c4.73 0 4.73 0 4.72 4.72v31.74h-3.75c-47.47 0-94.93-.02-142.4.05-2.91 0-3.92-.65-3.92-3.77.1-55.34.06-110.68.07-166.02.01-1.05.1-2.12.17-3.65z"/><path fill="#362E8C" d="M272.36 92.04c-8.68 0-16.5-.05-24.32.02-8.35.07-16.7.23-25.06.44-1.99.06-2.8-.58-2.95-2.63-.64-8.56-8.44-18.5-19.58-19.34-7.76-.58-15-.23-21.68 4.08-4.67 3.02-6.34 7.4-5.55 12.76.66 4.53 3.66 7.44 7.65 8.85 6.3 2.24 12.77 4 19.23 5.76 10.5 2.86 20.98 5.82 31.58 8.24 12.08 2.77 22.81 8 31.9 16.36 7.63 7.01 12.17 15.62 14.28 26 1.53 7.55 1 14.74-.61 21.85-2.73 12.12-8.6 22.91-18.8 30.25a102.99 102.99 0 01-23 12.43c-6.58 2.53-14.02 2.92-21.12 4.04-4.4.69-8.88 1.38-13.3 1.32-12.55-.2-24.94-1.36-37.2-4.57-16.14-4.23-29.42-12.23-38.16-26.71-4.24-7-7.2-14.59-8.22-22.81-.03-.25-.04-.49-.1-.72-1.44-6.99-1.44-7.04 5.88-7.4 13.4-.66 26.82-1.17 40.22-1.92 3.1-.18 4.27.74 4.5 3.9.77 9.93 9.7 21.57 19.26 23.89 6.46 1.56 13.44 2.5 19.98 1.82 6.47-.68 13.23-2.76 16.64-9.76 4.4-9.03 1.84-18.45-6.03-22.54-6.83-3.56-14.11-6.38-21.42-8.88a506.26 506.26 0 00-28.13-8.46c-10.74-3-20.78-7.35-29.52-14.37-7.87-6.31-12.6-14.32-14.47-24.47a52.3 52.3 0 01.74-22.6 41.53 41.53 0 0116.94-24.34c7.76-5.38 16.26-8.76 25.41-11.2 14.29-3.83 28.72-4.07 43.1-2.57 12.83 1.34 25.45 4.34 36.79 11.3 9.4 5.75 16.06 13.6 19.7 23.93 1.97 5.58 3.42 11.35 5.42 18.05zM292.73 43.3c22.47 0 44.5-.03 66.54 0 12.84.01 25.7-.34 38.5.3 11.34.56 21.9 4.15 30.48 12.04a36.53 36.53 0 0111.79 22.86c.94 7.65 1.97 15.4 1.64 23.05-.9 20.51-10.07 36.2-29.26 44.8-8.94 4-18.64 5.53-28.46 5.64-11.27.13-22.53.13-33.79-.03-3.23-.05-4.16 1.07-4.14 4.2.11 19.62.07 39.24.07 58.86v2.36h-53.38V43.29zm53.41 53.75c0 5.57-.02 11.14.01 16.7.03 4.5.42 4.89 5.04 4.92 4.6.03 9.24.37 13.79-.09 4.73-.46 9.56-1.2 14.03-2.76 6.95-2.4 12.22-10.68 12.45-17.57.43-12.25-10.22-22-21.44-22.17-6.66-.1-13.32.03-19.96-.18-3.12-.1-4 1.21-3.95 4.08.13 5.7.03 11.38.03 17.07zM630.16 148.11h17.98c.1 1.46.29 2.95.3 4.46.03 4.49-.04 8.96.04 13.45.02 1 .52 1.99.81 2.97.84-.5 1.84-.84 2.5-1.51 9.74-9.89 19.44-19.83 29.16-29.73.65-.66 1.41-1.2 2.45-2.04v81.6h-53.23l-.01-69.2z"/><path fill="#FF8600" d="M682.73 122.26c-7.23-7.63-13.84-14.63-20.48-21.62a828.95 828.95 0 00-10.85-11.21c-.5-.52-1.36-.71-2.05-1.05-.42.91-1.19 1.83-1.22 2.75-.12 4.72-.04 9.44-.03 14.17v3.98c-5.5 0-10.78.12-16.04-.13-.71-.04-1.87-2-1.9-3.09-.16-7.14-.09-14.28-.09-21.42V47.22c0-1.83-.3-3.56 2.65-3.53 16.1.12 32.2.07 48.3.1.47 0 .95.12 1.7.24v78.23z"/></svg>