<svg width="459" height="365" viewBox="0 0 459 365" fill="none" xmlns="http://www.w3.org/2000/svg">
<g clip-path="url(#clip0)">
<path d="M302.562 62.9608C228.855 28.4485 140.877 45.9294 87.5178 107.384C59.3084 139.873 41.6356 183.912 59.3334 241.046C90.97 343.178 178.297 333.94 228.596 318.818C252.918 311.53 278.139 307.675 303.528 307.363C349.215 306.755 418.707 290.494 408.889 195.193C401.773 126.119 351.658 85.9494 302.562 62.9608Z" fill="#2BD67B"/>
<path d="M382.52 193.779C366.294 189.432 356.665 172.753 361.012 156.527C365.36 140.301 382.038 130.672 398.265 135.019C414.491 139.367 424.12 156.046 419.772 172.272C415.424 188.498 398.746 198.127 382.52 193.779Z" fill="#2B78FB"/>
<rect x="62.5415" y="124.412" width="86.8767" height="164.166" fill="#F0F3FA" stroke="#24292E"/>
<rect x="256.234" y="250.463" width="28.6451" height="94.2879" stroke="#24292E"/>
<rect x="284.821" y="250.463" width="12.7638" height="94.2879" fill="#E6F4FF" stroke="#24292E"/>
<rect x="377.991" y="95.8845" width="10.6463" height="154.637" fill="#E6F4FF" stroke="#24292E"/>
<rect x="51.7349" y="124.412" width="11.3593" height="164.166" fill="#E6F4FF" stroke="#24292E"/>
<rect x="165.182" y="95.8845" width="212.869" height="154.637" fill="#F7F9FB" stroke="#24292E"/>
<rect x="185.856" y="114.442" width="173.636" height="119.639" fill="white"/>
<rect x="185.856" y="114.442" width="173.636" height="9.5288" fill="#E6F4FF"/>
<path d="M410.782 135.326C416.889 137.569 423.657 134.436 425.9 128.328C428.143 122.221 425.011 115.452 418.905 113.209C412.798 110.966 406.029 114.099 403.786 120.207C401.543 126.314 404.675 133.083 410.782 135.326Z" fill="#A3D6FE"/>
<path d="M412.622 122.224C413.497 122.546 414.466 122.097 414.788 121.222C415.109 120.347 414.66 119.377 413.785 119.055C412.91 118.734 411.941 119.183 411.619 120.058C411.298 120.933 411.747 121.903 412.622 122.224Z" fill="#24292E"/>
<path d="M406.36 122.129C407.235 122.45 408.205 122.002 408.526 121.126C408.847 120.251 408.399 119.282 407.524 118.96C406.649 118.639 405.679 119.088 405.358 119.963C405.036 120.838 405.485 121.808 406.36 122.129Z" fill="#24292E"/>
<path fill-rule="evenodd" clip-rule="evenodd" d="M303.101 154.553C303.099 154.557 303.097 154.562 303.094 154.568C303.097 154.563 303.101 154.544 303.101 154.553" fill="#E7E8F4"/>
<path fill-rule="evenodd" clip-rule="evenodd" d="M303.097 154.56C303.097 154.561 303.096 154.563 303.096 154.564C303.096 154.56 303.104 154.546 303.097 154.56" fill="#E7E8F4"/>
<path fill-rule="evenodd" clip-rule="evenodd" d="M303.129 154.48C303.123 154.499 303.114 154.517 303.107 154.536C303.111 154.526 303.114 154.519 303.118 154.509C303.02 154.754 303.082 154.595 303.129 154.48" fill="#E7E8F4"/>
<path fill-rule="evenodd" clip-rule="evenodd" d="M303.108 154.537C303.105 154.545 303.101 154.555 303.097 154.563C303.07 154.616 303.108 154.537 303.108 154.537" fill="#E7E8F4"/>
<path fill-rule="evenodd" clip-rule="evenodd" d="M303.097 154.56C303.097 154.559 303.097 154.559 303.098 154.558C303.097 154.559 303.097 154.559 303.097 154.56" fill="#E7E8F4"/>
<path fill-rule="evenodd" clip-rule="evenodd" d="M303.093 154.567C303.087 154.578 303.119 154.523 303.093 154.567Z" fill="#E7E8F4"/>
<path fill-rule="evenodd" clip-rule="evenodd" d="M303.097 154.56L303.099 154.558C303.098 154.559 303.098 154.56 303.097 154.56" fill="#E7E8F4"/>
<rect x="255.734" y="103.854" width="94.2548" height="62.2082" rx="4.23502" fill="#F7B801"/>
<g style="mix-blend-mode:color-burn" opacity="0.4">
<path fill-rule="evenodd" clip-rule="evenodd" d="M291.358 122.021L264.175 166.321H318.542L291.358 122.021Z" fill="#F7B801"/>
</g>
<g style="mix-blend-mode:color-burn" opacity="0.4">
<path fill-rule="evenodd" clip-rule="evenodd" d="M319.385 133.887L295.354 166.321H343.417L319.385 133.887Z" fill="#F7B801"/>
</g>
<path fill-rule="evenodd" clip-rule="evenodd" d="M329.67 134.321C334.615 134.321 338.624 130.313 338.624 125.367C338.624 120.422 334.615 116.413 329.67 116.413C324.725 116.413 320.716 120.422 320.716 125.367C320.716 130.313 324.725 134.321 329.67 134.321Z" fill="white"/>
<path d="M370.327 180.085L364.326 186.791C367 189.184 370.839 189.76 374.097 188.257L370.327 180.085ZM353.847 153.262C350.143 149.948 344.454 150.264 341.14 153.967C337.825 157.671 338.141 163.361 341.845 166.675L353.847 153.262ZM397.544 157.62L366.558 171.913L374.097 188.257L405.083 173.964L397.544 157.62ZM376.328 173.378L353.847 153.262L341.845 166.675L364.326 186.791L376.328 173.378Z" fill="#A3D6FE"/>
<path d="M343.389 164.909L335.141 157.394L344.523 160.531" stroke="#A3D6FE" stroke-width="4.23502" stroke-linejoin="round"/>
<path d="M344.669 160.502L338.322 151.498L347.463 155.954" stroke="#A3D6FE" stroke-width="4.23502" stroke-linejoin="round"/>
<path d="M347.297 157.589L343.482 147.263L350.355 155.43" stroke="#A3D6FE" stroke-width="4.23502" stroke-linejoin="round"/>
<path d="M348.821 159.311L353.589 149.381L352.573 158.432" stroke="#A3D6FE" stroke-width="4.23502" stroke-linejoin="round"/>
<path d="M389.633 158.272L402.897 149.919L413.542 171.306L396.105 182.109" fill="#2B78FB"/>
<path d="M397.608 157.851L371.825 169.497L361.61 160.763" stroke="#24292E"/>
<path d="M248.52 134.412V189.76H196.247V134.412H248.52ZM249.382 133.5H195.385V190.672H249.382V133.5Z" fill="#E7E8F4"/>
<path d="M146.932 221.803C158.51 221.803 167.895 212.416 167.895 200.836C167.895 189.257 158.51 179.87 146.932 179.87C135.354 179.87 125.968 189.257 125.968 200.836C125.968 212.416 135.354 221.803 146.932 221.803Z" fill="#2B78FB"/>
<path d="M162.564 177.967C168.411 177.967 173.152 173.464 173.152 167.909C173.152 162.354 168.411 157.851 162.564 157.851C156.717 157.851 151.977 162.354 151.977 167.909C151.977 173.464 156.717 177.967 162.564 177.967Z" fill="#A3D6FE"/>
<path d="M272.674 226.67L205.973 226.67L205.973 159.969C223.663 159.969 240.629 166.996 253.138 179.505C265.647 192.014 272.674 208.98 272.674 226.67V226.67Z" fill="#FF5900"/>
<path d="M164.984 197.38L181.563 217.297L198.315 212.546C198.315 212.546 203.09 208.147 204.774 208.334C206.458 208.521 206.179 209.73 206.179 209.73V212.172V219.286C206.179 219.286 212.262 215.729 213.48 216.571C214.698 217.413 209.453 224.616 206.09 226.113C202.728 227.61 183.815 235.416 177.546 234.099C171.276 232.783 152.325 210.388 152.325 210.388" fill="#A3D6FE"/>
<path d="M150.429 211.339L162.846 224.555L179.067 210.408L161.671 190.872" fill="#2B78FB"/>
<path d="M128.68 204.161L100.416 200.672C100.416 200.672 75.4257 216.964 72.056 217.621C68.6864 218.278 59.887 214.173 60.0741 207.444C60.0741 207.444 58.7646 202.356 62.6955 198.171V203.668H69.0606C69.0606 203.668 86.2828 183.984 93.3027 182.291C100.323 180.598 134.858 186.024 134.858 186.024" fill="#A3D6FE"/>
<path d="M129.926 206.783L114.39 204.704L119.911 181.46L140.222 184.33" fill="#2B78FB"/>
<path d="M164.601 304.074L142.234 274.618L133.478 290.742L164.601 304.074Z" fill="#A3D6FE"/>
<path d="M157.291 289.832L135.107 281.969L144.935 255.289L128.229 258.801L119.669 288.513H93.1431C94.6442 278.732 99.8777 246.345 109.416 237.88C120.648 227.909 164.738 228.981 170.348 239.425C176.384 250.657 157.291 289.832 157.291 289.832Z" fill="#24292E"/>
<path fill-rule="evenodd" clip-rule="evenodd" d="M132.394 207.071L122.201 205.784L122.286 205.105L132.48 206.392L132.394 207.071Z" fill="#24292E"/>
<path fill-rule="evenodd" clip-rule="evenodd" d="M164.249 189.876C164.249 189.876 164.249 189.876 164.517 189.663C164.784 189.449 164.784 189.45 164.784 189.45L164.785 189.45L164.786 189.452L164.789 189.456C164.792 189.46 164.797 189.465 164.802 189.472C164.812 189.486 164.827 189.505 164.847 189.531C164.885 189.583 164.94 189.658 165.008 189.757C165.145 189.955 165.336 190.247 165.556 190.628C165.996 191.389 166.555 192.508 167.034 193.945C167.995 196.82 168.639 200.968 167.393 206.07L166.728 205.907C167.939 200.949 167.311 196.934 166.385 194.162C165.922 192.775 165.384 191.698 164.963 190.97C164.753 190.607 164.572 190.33 164.445 190.146C164.382 190.054 164.331 189.985 164.298 189.94C164.281 189.918 164.268 189.901 164.26 189.89C164.256 189.885 164.253 189.881 164.251 189.879L164.249 189.876L164.249 189.876Z" fill="#24292E"/>
<path fill-rule="evenodd" clip-rule="evenodd" d="M139.463 274.294L160.203 281.369L159.982 282.017L139.242 274.942L139.463 274.294Z" fill="#24292E"/>
<path d="M170.505 166.321C171.382 166.321 172.093 165.61 172.093 164.733C172.093 163.856 171.382 163.145 170.505 163.145C169.628 163.145 168.917 163.856 168.917 164.733C168.917 165.61 169.628 166.321 170.505 166.321Z" fill="#24292E"/>
<path d="M164.152 167.38C165.029 167.38 165.74 166.669 165.74 165.792C165.74 164.915 165.029 164.204 164.152 164.204C163.275 164.204 162.564 164.915 162.564 165.792C162.564 166.669 163.275 167.38 164.152 167.38Z" fill="#24292E"/>
<path d="M151.207 180.306C151.207 180.306 151.015 190.233 156.162 192.917C161.309 195.6 164.177 189.051 164.177 189.051C164.177 189.051 160.691 182.402 151.207 180.306Z" fill="#A3D6FE"/>
<path d="M234.559 187.496C228.71 187.496 223.972 192.234 223.972 198.084C223.972 203.933 228.71 208.671 234.559 208.671C240.409 208.671 245.147 203.933 245.147 198.084C245.147 192.234 240.409 187.496 234.559 187.496ZM232.442 202.848V193.319L238.794 198.084L232.442 202.848Z" fill="white"/>
<path d="M344.966 178.745V225.893H298.85V216.358C318.957 215.949 335.24 199.302 335.644 178.745H344.968H344.966ZM345.728 177.967H334.884C334.884 198.745 318.414 215.589 298.084 215.589V226.67H345.721V177.967H345.728Z" fill="#E7E8F4"/>
<path d="M217.619 143.028C216.44 143.028 215.502 142.066 215.502 140.912C215.502 139.757 216.272 138.843 217.619 138.795C218.798 138.747 219.737 139.757 219.737 140.912C219.737 142.066 218.798 143.028 217.619 143.028Z" fill="#2B78FB"/>
<path d="M210.208 143.028C209.029 143.028 208.09 142.066 208.09 140.912C208.09 139.757 208.86 138.843 210.208 138.795C211.387 138.747 212.325 139.757 212.325 140.912C212.325 142.066 211.363 143.028 210.208 143.028Z" fill="#2B78FB"/>
<path d="M202.797 143.028C201.617 143.028 200.679 142.066 200.679 140.912C200.679 139.757 201.449 138.843 202.797 138.795C203.976 138.747 204.914 139.757 204.914 140.912C204.914 142.066 203.976 143.028 202.797 143.028Z" fill="#2B78FB"/>
<path d="M286.438 202.319L286.438 174.791L313.966 174.791C313.966 182.092 311.066 189.093 305.903 194.256C300.741 199.418 293.739 202.319 286.438 202.319V202.319Z" fill="#24292E"/>
<path d="M361.012 74.0762C365.36 74.0762 368.885 70.5517 368.885 66.2039C368.885 61.8562 365.36 58.3317 361.012 58.3317C356.665 58.3317 353.14 61.8562 353.14 66.2039C353.14 70.5517 356.665 74.0762 361.012 74.0762Z" fill="#24292E"/>
<path d="M435.095 313.744C445.989 313.744 454.82 304.912 454.82 294.019C454.82 283.125 445.989 274.294 435.095 274.294C424.201 274.294 415.37 283.125 415.37 294.019C415.37 304.912 424.201 313.744 435.095 313.744Z" fill="#FF5900"/>
<path d="M208.09 66.2039C218.984 66.2039 227.815 57.3728 227.815 46.479C227.815 35.5852 218.984 26.7541 208.09 26.7541C197.196 26.7541 188.365 35.5852 188.365 46.479C188.365 57.3728 197.196 66.2039 208.09 66.2039Z" fill="#2B78FB"/>
<path d="M24.5551 114.725C26.2149 114.725 27.5604 113.38 27.5604 111.72C27.5604 110.06 26.2149 108.715 24.5551 108.715C22.8953 108.715 21.5498 110.06 21.5498 111.72C21.5498 113.38 22.8953 114.725 24.5551 114.725Z" fill="#2B78FB"/>
<path d="M103.115 66.204L66.0344 87.6123L66.0344 44.7956L103.115 66.204Z" fill="#24292E"/>
<path d="M83.0942 335.251C83.0942 340.497 78.8409 344.751 73.5942 344.751C68.3475 344.751 64.0942 340.497 64.0942 335.251C64.0942 330.004 68.3475 325.751 73.5942 325.751C78.8409 325.751 83.0942 330.004 83.0942 335.251Z" stroke="#24292E"/>
</g>
<defs>
<clipPath id="clip0">
<rect width="459" height="365" fill="white"/>
</clipPath>
</defs>
</svg>
