<svg width="800" height="572" viewBox="0 0 800 572" fill="none" xmlns="http://www.w3.org/2000/svg">
<g clip-path="url(#clip0)">
<path d="M376.194 7.42812C317.432 9.95084 220.437 29.4852 134.429 131.656C48.4202 233.826 80.9639 380.1 140.24 440.478C199.516 500.856 359.922 529.878 431.994 476.465C504.067 423.053 481.156 359.192 529.044 337.649C623.491 295.153 687.718 234.987 648.2 135.138C608.66 35.3009 484.286 2.78451 376.194 7.42812Z" fill="#2BD67B"/>
<path d="M244.447 543.945L152.162 543.945L152.162 451.661C176.637 451.661 200.11 461.384 217.417 478.69C234.723 495.997 244.446 519.47 244.447 543.945V543.945Z" fill="#2B78FB"/>
<rect x="156.86" y="64.1434" width="503.424" height="345.63" stroke="#24292E" stroke-width="1.30624"/>
<rect x="361.931" y="409.756" width="93.2799" height="140.05" stroke="#24292E" stroke-width="1.29916"/>
<rect x="630.24" y="64.1434" width="30.0435" height="345.63" fill="#E6F4FF" stroke="#24292E" stroke-width="1.30624"/>
<rect x="425.508" y="409.8" width="29.8715" height="140.006" fill="#E6F4FF" stroke="#24292E" stroke-width="1.29876"/>
<path d="M183.376 90.6597H610.777V385.347H183.376V90.6597Z" fill="white"/>
<path d="M183.376 90.6597H610.777V114.694H183.376V90.6597Z" fill="#E6F4FF"/>
<path d="M278.723 149.438C287.352 149.439 295.751 152.217 302.678 157.362C309.604 162.508 314.691 169.746 317.184 178.007C319.677 186.267 319.444 195.111 316.521 203.229C313.597 211.347 308.138 218.308 300.951 223.083L300.12 223.635L300.438 224.578L339.859 342.938H318.236L280.857 230.672L278.867 224.687C285.136 220.305 290.117 214.324 293.291 207.364C296.465 200.405 297.716 192.723 296.914 185.116C296.111 177.509 293.285 170.257 288.729 164.113C284.173 157.969 278.054 153.158 271.008 150.181C273.558 149.687 276.148 149.438 278.745 149.438H278.723ZM278.745 148.134C274.62 148.133 270.519 148.746 266.575 149.955C274.083 152.264 280.78 156.657 285.889 162.623C290.998 168.589 294.308 175.883 295.435 183.656C296.562 191.43 295.459 199.363 292.254 206.534C289.05 213.705 283.875 219.819 277.332 224.165L279.636 231.084L317.336 344.242H341.715L301.729 224.165C309.15 219.237 314.788 212.05 317.808 203.668C320.827 195.286 321.067 186.155 318.493 177.626C315.918 169.097 310.666 161.624 303.514 156.312C296.361 151 287.689 148.133 278.78 148.134H278.745Z" fill="#24292E"/>
<path d="M253.471 231.085L255.775 224.165C249.232 219.819 244.058 213.705 240.854 206.533C237.649 199.362 236.547 191.428 237.674 183.655C238.801 175.882 242.112 168.588 247.221 162.622C252.331 156.657 259.029 152.264 266.537 149.955C274.044 152.265 280.742 156.658 285.851 162.623C290.96 168.589 294.27 175.883 295.397 183.656C296.523 191.43 295.42 199.363 292.216 206.534C289.011 213.705 283.837 219.819 277.294 224.165L279.597 231.085L317.298 344.242H215.771L253.471 231.085Z" fill="#2BD67B"/>
<path d="M592.976 107.371C590.36 107.371 588.278 105.236 588.278 102.674C588.278 100.113 589.986 98.085 592.976 97.9783C595.592 97.8715 597.674 100.113 597.674 102.674C597.674 105.236 595.592 107.371 592.976 107.371Z" fill="#255AFA"/>
<path d="M576.533 107.371C573.918 107.371 571.836 105.236 571.836 102.674C571.836 100.113 573.544 98.085 576.533 97.9783C579.149 97.8715 581.231 100.113 581.231 102.674C581.231 105.236 579.096 107.371 576.533 107.371Z" fill="#255AFA"/>
<path d="M560.09 107.371C557.474 107.371 555.392 105.236 555.392 102.674C555.392 100.113 557.101 98.085 560.09 97.9783C562.706 97.8715 564.788 100.113 564.788 102.674C564.788 105.236 562.706 107.371 560.09 107.371Z" fill="#255AFA"/>
<path d="M563.122 217.113C551.799 217.283 542.481 208.242 542.311 196.919C542.14 185.595 551.181 176.277 562.505 176.107C573.828 175.936 583.146 184.978 583.317 196.301C583.487 207.625 574.446 216.942 563.122 217.113Z" fill="#A3D6FE"/>
<path d="M551.041 192.05C549.602 192.072 548.419 190.923 548.397 189.485C548.376 188.047 549.524 186.863 550.962 186.842C552.4 186.82 553.584 187.968 553.606 189.407C553.627 190.845 552.479 192.028 551.041 192.05Z" fill="#090928"/>
<path d="M542.159 192.461C540.721 192.482 539.537 191.334 539.516 189.896C539.494 188.458 540.642 187.274 542.08 187.253C543.519 187.231 544.702 188.379 544.724 189.817C544.745 191.256 543.597 192.439 542.159 192.461Z" fill="#090928"/>
<path d="M696.994 517.993L669.371 447.387L702.674 448.504L696.994 517.993Z" fill="#A3D6FE"/>
<path d="M489.772 544.428L552.593 501.976L558.813 534.718L489.772 544.428Z" fill="#A3D6FE"/>
<path d="M565.005 368.283C565.005 368.283 553.024 431.662 571.403 453.853C589.289 475.459 678.738 488.222 678.738 488.222L690.379 431.526L630.791 418.262C630.791 418.262 630.426 368.246 627.592 351.863C625.873 342.329 625.078 337.195 613.572 327.366C602.066 317.537 571.862 319.383 562.485 323.671C553.107 327.96 490.754 375.487 479.425 404.128C468.096 432.769 504.251 524.824 504.251 524.824L563.86 512.566L540.404 431.728L591.417 390.921L565.005 368.283Z" fill="#2B78FB"/>
<path d="M537.195 289.74L479.974 293.266L465.475 277.036C465.475 277.036 459.212 273.359 460.204 270.219C461.206 266.969 478.486 268.222 478.486 268.222L559.962 257.511L537.195 289.74Z" fill="#A3D6FE"/>
<path d="M574.599 310.76C551.982 311.101 533.371 293.042 533.031 270.426C532.69 247.809 550.749 229.198 573.365 228.858C595.982 228.517 614.593 246.576 614.934 269.192C615.274 291.809 597.216 310.42 574.599 310.76Z" fill="#2B78FB"/>
<path d="M599.145 287.82C599.145 287.82 589.396 328.77 567.597 337.091C545.797 345.412 491.814 353.461 491.814 353.461C491.814 353.461 477.253 357.398 475.81 355.75C474.207 353.91 488.42 345.682 488.42 345.682C488.42 345.682 472.972 354.207 470.908 352.053C467.84 348.87 486.262 338.746 486.262 338.746C486.262 338.746 471.257 344.88 470.438 342.797C469.214 339.664 489.19 328.861 492.448 327.588C495.706 326.316 554.77 307.981 554.77 307.981L563.422 280.943L599.145 287.82Z" fill="#A3D6FE"/>
<path d="M519.452 280.24C519.452 280.24 519.381 291.247 496.18 293.718C472.978 296.19 473.762 296.217 473.762 296.217C473.762 296.217 458.679 296.302 457.705 294.34C456.626 292.151 472.469 287.83 472.469 287.83C472.469 287.83 455.356 292.122 453.91 289.512C451.759 285.651 472.156 280.572 472.156 280.572C472.156 280.572 456.081 282.667 455.822 280.443C455.44 277.102 477.514 271.764 480.989 271.367C484.464 270.969 492.356 270.297 492.356 270.297L501.737 271.341L519.452 280.24Z" fill="#A3D6FE"/>
<path d="M675.211 428.162L665.746 475.189" stroke="#24292E" stroke-width="1.61841" stroke-miterlimit="10"/>
<path d="M559.961 499.166L511.247 508.069" stroke="#24292E" stroke-width="1.61841" stroke-miterlimit="10"/>
<path d="M561.229 415.054L564.145 364.857" stroke="#24292E" stroke-width="1.61841" stroke-miterlimit="10"/>
<path d="M568.611 262.57L554.543 307.922L529.865 316.187" stroke="#24292E" stroke-width="1.50407" stroke-miterlimit="10"/>
<path d="M577.298 228.937L550.171 245.278L552.238 234.954C555.577 233.059 559.082 231.474 562.711 230.219C569.15 227.885 577.298 228.937 577.298 228.937Z" fill="#A3D6FE"/>
<path d="M521.005 290.491C522.504 297.993 523.58 308.387 518.503 317.494C513 325 508 329 500.935 333.06" stroke="#24292E" stroke-width="1.74846" stroke-miterlimit="10"/>
<path d="M474.592 337.084C471.286 336.359 468.104 335.149 465.151 333.494C450.237 325.18 442.859 307.997 447.511 291.058L361.643 243.19C357.286 240.762 355.702 235.301 358.377 230.502C361.128 225.568 366.53 224.18 370.886 226.608L375.034 228.92L384.581 211.793L395.642 217.959L386.156 234.975L392.827 238.694L398.931 227.744L408.337 232.987L402.121 244.137L456.237 274.304C467.763 257.989 487.523 254.551 504.037 263.757C507.509 265.691 510.618 268.212 513.226 271.21" stroke="#24292E" stroke-width="1.74846" stroke-miterlimit="10"/>
<path d="M500.423 307.711C505.274 299.009 502.152 288.021 493.449 283.17C484.747 278.319 473.759 281.441 468.908 290.144C464.057 298.846 467.179 309.834 475.882 314.685C484.584 319.536 495.571 316.414 500.423 307.711Z" stroke="#24292E" stroke-width="1.74846" stroke-miterlimit="10"/>
<path d="M61.0319 245.456L31.7908 134.437L146.271 168.545L61.0319 245.456Z" fill="#24292E"/>
<path d="M80.913 137.4C89.3718 137.4 96.2289 130.543 96.2289 122.084C96.2289 113.626 89.3718 106.769 80.913 106.769C72.4543 106.769 65.5972 113.626 65.5972 122.084C65.5972 130.543 72.4543 137.4 80.913 137.4Z" fill="#2B78FB"/>
<path d="M80.4917 503.782C96.9399 503.782 110.274 490.448 110.274 474C110.274 457.551 96.9399 444.217 80.4917 444.217C64.0434 444.217 50.7095 457.551 50.7095 474C50.7095 490.448 64.0434 503.782 80.4917 503.782Z" fill="#F7B801"/>
<path d="M709.663 72.0013C719.038 72.0013 726.638 64.4014 726.638 55.0264C726.638 45.6514 719.038 38.0515 709.663 38.0515C700.288 38.0515 692.688 45.6514 692.688 55.0264C692.688 64.4014 700.288 72.0013 709.663 72.0013Z" fill="#2BD67B"/>
<path d="M599.338 12.7815L789.826 120.47L782.951 132.63L592.463 24.9382L599.338 12.7815ZM598.909 11.2407L590.922 25.3676L783.399 134.171L791.385 120.044L598.909 11.2407Z" fill="#170C2C"/>
<path d="M779.854 284.945L724.356 337.339L699.41 310.916L727.159 284.719L702.209 258.296L729.958 232.099L779.854 284.945Z" fill="#F7B801"/>
<path d="M301.935 143.367V130.34H496.092V243.857H443.366" stroke="#E7E8F4" stroke-width="1.55078"/>
<path d="M422.275 293.482V361.716H262.235V351.171" stroke="#E7E8F4" stroke-width="1.55078"/>
<path d="M398.6 319.067C400.697 321.165 402.125 323.837 402.704 326.747C403.282 329.657 402.985 332.672 401.849 335.413C400.714 338.154 398.791 340.496 396.325 342.144C393.858 343.792 390.958 344.672 387.992 344.672C385.025 344.672 382.125 343.792 379.659 342.144C377.192 340.496 375.269 338.154 374.134 335.413C372.999 332.672 372.701 329.657 373.28 326.747C373.858 323.837 375.286 321.165 377.383 319.067" stroke="#E7E8F4" stroke-width="1.6" stroke-linecap="round" stroke-linejoin="round"/>
<path d="M388 311.333V328" stroke="#E7E8F4" stroke-width="1.6" stroke-linecap="round" stroke-linejoin="round"/>
<path d="M429.125 161.875L465.875 185.5L429.125 209.125V161.875Z" stroke="#E7E8F4" stroke-width="1.5" stroke-linecap="round" stroke-linejoin="round"/>
<path d="M331.5 153H384.5M331.5 163.5H370.5M331.5 174.5H352" stroke="#E7E8F4"/>
</g>
<defs>
<clipPath id="clip0">
<rect width="800" height="572" fill="white"/>
</clipPath>
</defs>
</svg>
