<svg width="561" height="506" viewBox="0 0 561 506" fill="none" xmlns="http://www.w3.org/2000/svg">
<path d="M405.717 48.2479C281.372 29.4314 300.714 133.549 226.861 204.801C172.099 257.487 131.907 267.021 113.569 311.428C66.5941 426.083 153.761 467.478 274.087 465.973C394.413 464.468 520.768 412.786 475.05 292.36C426.065 163.404 467.765 230.141 479.57 129.786C487.358 61.043 435.108 52.7638 405.717 48.2479Z" fill="#2BD67B"/>
<path d="M498.664 258.838L531.024 368.989L415.628 338.123L498.664 258.838Z" fill="#24292E"/>
<path d="M418.759 490.328C418.759 498.511 412.126 505.144 403.943 505.144C395.761 505.144 389.127 498.511 389.127 490.328C389.127 482.146 395.761 475.512 403.943 475.512C412.126 475.512 418.759 482.146 418.759 490.328Z" stroke="#24292E"/>
<path d="M58.1274 271.512C58.1274 275.378 54.9934 278.512 51.1274 278.512C47.2614 278.512 44.1274 275.378 44.1274 271.512C44.1274 267.646 47.2614 264.512 51.1274 264.512C54.9934 264.512 58.1274 267.646 58.1274 271.512Z" stroke="#24292E"/>
<path d="M427.41 150.577C443.858 150.577 457.192 137.243 457.192 120.795C457.192 104.346 443.858 91.0123 427.41 91.0123C410.961 91.0123 397.627 104.346 397.627 120.795C397.627 137.243 410.961 150.577 427.41 150.577Z" fill="#FF5900"/>
<path d="M543.602 231.962C552.977 231.962 560.577 224.362 560.577 214.987C560.577 205.612 552.977 198.012 543.602 198.012C534.227 198.012 526.627 205.612 526.627 214.987C526.627 224.362 534.227 231.962 543.602 231.962Z" fill="#2BD67B"/>
<path d="M306.043 1.5531L496.531 109.242L489.656 121.402L299.168 13.7098L306.043 1.5531ZM305.614 0.0123291L297.627 14.1392L490.104 122.943L498.09 108.816L305.614 0.0123291Z" fill="#24292E"/>
<path d="M138.072 353.858L82.5737 406.252L57.6274 379.829L85.3765 353.632L60.4265 327.209L88.1755 301.012L138.072 353.858Z" fill="#F7B801"/>
<rect x="149.127" y="70.5123" width="239" height="346" stroke="#24292E"/>
<rect x="374.127" y="70.5123" width="23" height="346" fill="#E6F4FF" stroke="#24292E"/>
<path d="M164.627 85.0123H360.627V399.012H164.627V85.0123Z" fill="white"/>
<path d="M337.878 109.075C335.633 109.075 333.847 107.243 333.847 105.045C333.847 102.847 335.313 101.107 337.878 101.015C340.123 100.924 341.909 102.847 341.909 105.045C341.909 107.243 340.123 109.075 337.878 109.075Z" fill="#2B78FB"/>
<path d="M323.769 109.075C321.524 109.075 319.738 107.243 319.738 105.045C319.738 102.847 321.204 101.107 323.769 101.015C326.014 100.924 327.8 102.847 327.8 105.045C327.8 107.243 325.968 109.075 323.769 109.075Z" fill="#2B78FB"/>
<path d="M309.659 109.075C307.414 109.075 305.627 107.243 305.627 105.045C305.627 102.847 307.093 101.107 309.659 101.015C311.903 100.924 313.69 102.847 313.69 105.045C313.69 107.243 311.903 109.075 309.659 109.075Z" fill="#2B78FB"/>
<circle cx="264.627" cy="192.012" r="61" fill="#E6F4FF"/>
<mask id="mask0" mask-type="alpha" maskUnits="userSpaceOnUse" x="203" y="131" width="123" height="123">
<circle cx="264.627" cy="192.012" r="61" fill="#E6F4FF"/>
</mask>
<g mask="url(#mask0)">
<circle opacity="0.15" cx="264.127" cy="184.512" r="17.5" fill="#2B78FB"/>
<circle opacity="0.15" cx="264.627" cy="253.012" r="45" fill="#2B78FB"/>
</g>
<path d="M184.627 283.75V271.012H343.627V382.012H300.449" stroke="#E7E8F4"/>
<path d="M201.892 297.672H254.892M201.892 308.172H240.892M201.892 319.172H222.392" stroke="#E7E8F4"/>
<path d="M166.182 285.012L124.929 234.092L111.543 259.599L166.182 285.012Z" fill="#A3D6FE"/>
<path d="M63.3501 236.469L75.9786 175.658L100.829 193.73L63.3501 236.469Z" fill="#A3D6FE"/>
<path d="M110.036 40.646C116.838 40.646 122.352 35.1316 122.352 28.3292C122.352 21.5268 116.838 16.0123 110.036 16.0123C103.233 16.0123 97.7188 21.5268 97.7188 28.3292C97.7188 35.1316 103.233 40.646 110.036 40.646Z" fill="#A3D6FE"/>
<path d="M111.352 33.4031C112.281 33.4031 113.035 32.6495 113.035 31.7199C113.035 30.7902 112.281 30.0366 111.352 30.0366C110.422 30.0366 109.668 30.7902 109.668 31.7199C109.668 32.6495 110.422 33.4031 111.352 33.4031Z" fill="#24292E"/>
<path d="M103.497 32.281C104.426 32.281 105.18 31.5274 105.18 30.5977C105.18 29.6681 104.426 28.9145 103.497 28.9145C102.567 28.9145 101.813 29.6681 101.813 30.5977C101.813 31.5274 102.567 32.281 103.497 32.281Z" fill="#24292E"/>
<path d="M79.8913 111.291L137.663 117.703L182.917 174.968C190.203 184.19 191.138 196.29 185.339 206.325L154.059 260.418L109.746 236.93L137.34 187.363L103.262 146.833L77.1029 161.482L94.1728 178.814L64.9642 208.056L25.2531 167.126C16.2089 157.809 18.8359 143.399 30.7131 137.155L79.8913 111.291Z" fill="#24292E"/>
<path d="M67.3188 150.896L80.4149 164.599" stroke="#24292E" stroke-width="1.6697" stroke-miterlimit="10"/>
<path d="M85.3577 75.6652L52.37 62.5358L40.3592 83.5017L21.6196 74.5966L35.1164 46.2729C36.9918 42.3412 40.3039 39.2786 44.3701 37.7161C48.4364 36.1536 52.9471 36.2102 56.9728 37.8743L97.7023 54.7216" fill="#A3D6FE"/>
<path d="M21.625 74.5966C21.625 74.5966 2.80188 77.3349 3.03007 78.7041C3.25826 80.0732 22.6658 78.7041 22.6658 78.7041C22.6658 78.7041 0.291761 80.5352 0.631266 82.8171C0.970772 85.099 22.6658 82.8171 22.6658 82.8171C22.6658 82.8171 5.2007 84.9877 5.96876 87.0414C6.73682 89.0952 31.9437 86.6686 31.9437 86.6686C31.9437 86.6686 32.6561 94.4605 34.2535 95.6627C35.8508 96.8648 40.3368 83.5017 40.3368 83.5017" fill="#A3D6FE"/>
<path d="M130.138 52.1614L168.959 35.2974C172.734 33.6574 177.002 33.5669 180.843 35.0454C184.684 36.5239 187.79 39.4529 189.49 43.2007L202.581 72.0253L184.743 80.9303L173.306 59.9644L141.904 73.0994" fill="#A3D6FE"/>
<path d="M202.582 72.0253C202.582 72.0253 220.503 74.7691 220.286 76.1383C220.069 77.5074 201.591 76.1383 201.591 76.1383C201.591 76.1383 222.896 77.9638 222.568 80.2457C222.24 82.5277 201.591 80.2457 201.591 80.2457C201.591 80.2457 218.221 82.4164 217.464 84.4701C216.707 86.5238 192.73 84.1027 192.73 84.1027C192.73 84.1027 192.057 91.8947 190.504 93.0913C188.951 94.2879 184.716 80.9303 184.716 80.9303" fill="#A3D6FE"/>
<path d="M72.1391 43.5791L62.3379 69.3816L86.3482 78.9434L98.1864 54.3487L72.1391 43.5791Z" fill="#2B78FB"/>
<path d="M130.45 51.3543L143.218 75.309L163.616 66.7824L152.713 41.6868L130.45 51.3543Z" fill="#2B78FB"/>
<path d="M115.384 107.189C132.625 107.189 146.602 93.2125 146.602 75.9713C146.602 58.7302 132.625 44.7535 115.384 44.7535C98.1427 44.7535 84.166 58.7302 84.166 75.9713C84.166 93.2125 98.1427 107.189 115.384 107.189Z" fill="#2B78FB"/>
<path d="M86.7263 170.933L57.2227 199.746" stroke="white" stroke-miterlimit="10"/>
<path d="M114.95 227.948L159.893 250.082" stroke="white" stroke-miterlimit="10"/>
<path d="M106.04 46.4566L114.065 65.2407L122.058 46.0614" fill="#A3D6FE"/>
<path d="M88.2017 184.385L100.83 193.73L89.337 206.842" stroke="#24292E" stroke-miterlimit="10"/>
<path d="M81.6675 48.6327L94.7301 53.6808C97.4436 51.0198 100.681 48.9528 104.237 47.6113C107.793 46.2698 111.589 45.6832 115.384 45.8889C128.536 46.4454 133.044 51.3655 133.044 51.3655L135.087 50.475" stroke="#24292E" stroke-miterlimit="10"/>
<path d="M148.627 427.012L211.627 427.012L211.627 490.012C194.919 490.012 178.895 483.375 167.08 471.56C155.265 459.745 148.628 443.721 148.627 427.012V427.012Z" fill="#2B78FB"/>
<rect x="201.627" y="340.012" width="124" height="23" fill="#2B78FB"/>
</svg>
