<svg width="800" height="572" viewBox="0 0 800 572" fill="none" xmlns="http://www.w3.org/2000/svg">
<g clip-path="url(#clip0)">
<path d="M376.194 7.42812C317.432 9.95084 220.437 29.4852 134.429 131.656C48.4202 233.826 80.9639 380.1 140.24 440.478C199.516 500.856 359.922 529.878 431.994 476.465C504.067 423.053 481.156 359.192 529.044 337.649C623.491 295.153 687.718 234.987 648.2 135.138C608.66 35.3009 484.286 2.78451 376.194 7.42812Z" fill="#2BD67B"/>
<path d="M244.447 543.945L152.162 543.945L152.162 451.661C176.637 451.661 200.11 461.384 217.417 478.69C234.723 495.997 244.446 519.47 244.447 543.945V543.945Z" fill="#2B78FB"/>
<rect x="156.707" y="63.9902" width="503.73" height="345.937" stroke="#24292E"/>
<rect x="361.5" y="409.5" width="87" height="140" stroke="#24292E"/>
<rect x="640.087" y="63.9902" width="23" height="345.937" fill="#E6F4FF" stroke="#24292E"/>
<rect x="425.358" y="409.65" width="23" height="140.305" fill="#E6F4FF" stroke="#24292E"/>
<path d="M183.376 90.6597H610.777V385.347H183.376V90.6597Z" fill="white"/>
<path d="M183.376 90.6597H610.777V114.694H183.376V90.6597Z" fill="#E6F4FF"/>
<path d="M278.723 149.438C287.352 149.439 295.751 152.218 302.678 157.363C309.604 162.508 314.691 169.746 317.184 178.007C319.677 186.267 319.444 195.111 316.521 203.229C313.597 211.347 308.138 218.309 300.951 223.083L300.12 223.635L300.438 224.578L339.859 342.938H318.236L280.857 230.672L278.867 224.687C285.136 220.305 290.117 214.324 293.291 207.365C296.465 200.406 297.716 192.723 296.914 185.116C296.111 177.51 293.285 170.257 288.729 164.113C284.173 157.969 278.054 153.158 271.008 150.181C273.558 149.687 276.148 149.438 278.745 149.438H278.723ZM278.745 148.134C274.62 148.133 270.519 148.747 266.575 149.955C274.083 152.265 280.78 156.658 285.889 162.624C290.998 168.59 294.308 175.883 295.435 183.657C296.562 191.43 295.459 199.363 292.254 206.534C289.05 213.705 283.875 219.819 277.332 224.165L279.636 231.085L317.336 344.242H341.715L301.729 224.165C309.15 219.237 314.788 212.05 317.808 203.668C320.827 195.287 321.067 186.155 318.493 177.626C315.918 169.097 310.666 161.624 303.514 156.312C296.361 151.001 287.689 148.133 278.78 148.134H278.745Z" fill="#24292E"/>
<path d="M253.471 231.085L255.775 224.165C249.232 219.819 244.058 213.705 240.854 206.533C237.649 199.362 236.547 191.428 237.674 183.655C238.801 175.882 242.112 168.588 247.221 162.622C252.331 156.657 259.029 152.264 266.537 149.955C274.044 152.265 280.742 156.658 285.851 162.624C290.96 168.59 294.27 175.883 295.397 183.657C296.523 191.43 295.42 199.363 292.216 206.534C289.011 213.705 283.837 219.819 277.294 224.165L279.597 231.085L317.298 344.242H215.771L253.471 231.085Z" fill="#2BD67B"/>
<path d="M592.976 107.371C590.36 107.371 588.278 105.236 588.278 102.675C588.278 100.113 589.986 98.0851 592.976 97.9784C595.592 97.8717 597.674 100.113 597.674 102.675C597.674 105.236 595.592 107.371 592.976 107.371Z" fill="#2B78FB"/>
<path d="M576.533 107.371C573.918 107.371 571.836 105.236 571.836 102.675C571.836 100.113 573.544 98.0851 576.533 97.9784C579.149 97.8717 581.231 100.113 581.231 102.675C581.231 105.236 579.096 107.371 576.533 107.371Z" fill="#2B78FB"/>
<path d="M560.09 107.371C557.474 107.371 555.392 105.236 555.392 102.675C555.392 100.113 557.101 98.0851 560.09 97.9784C562.706 97.8717 564.788 100.113 564.788 102.675C564.788 105.236 562.706 107.371 560.09 107.371Z" fill="#2B78FB"/>
<path d="M563.122 217.113C551.799 217.283 542.481 208.242 542.311 196.918C542.14 185.595 551.181 176.277 562.505 176.107C573.828 175.936 583.146 184.977 583.317 196.301C583.487 207.624 574.446 216.942 563.122 217.113Z" fill="#A3D6FE"/>
<path d="M551.041 192.05C549.602 192.072 548.419 190.923 548.397 189.485C548.376 188.047 549.524 186.863 550.962 186.842C552.4 186.82 553.584 187.968 553.606 189.407C553.627 190.845 552.479 192.028 551.041 192.05Z" fill="#24292E"/>
<path d="M542.159 192.461C540.721 192.482 539.537 191.334 539.516 189.896C539.494 188.457 540.642 187.274 542.08 187.252C543.519 187.231 544.702 188.379 544.724 189.817C544.745 191.255 543.597 192.439 542.159 192.461Z" fill="#24292E"/>
<path d="M696.994 517.993L669.371 447.387L702.674 448.504L696.994 517.993Z" fill="#A3D6FE"/>
<path d="M489.772 544.428L552.593 501.976L558.813 534.718L489.772 544.428Z" fill="#A3D6FE"/>
<path d="M565.005 368.283C565.005 368.283 553.024 431.661 571.403 453.853C589.289 475.458 678.738 488.222 678.738 488.222L690.379 431.526L630.791 418.261C630.791 418.261 630.426 368.246 627.592 351.863C625.873 342.328 625.078 337.195 613.572 327.366C602.066 317.537 571.862 319.383 562.485 323.671C553.107 327.959 490.754 375.486 479.425 404.128C468.096 432.769 504.251 524.823 504.251 524.823L563.86 512.566L540.404 431.727L591.417 390.92L565.005 368.283Z" fill="#24292E"/>
<path d="M537.195 289.74L479.974 293.266L465.475 277.035C465.475 277.035 459.212 273.359 460.204 270.219C461.206 266.969 478.486 268.221 478.486 268.221L559.962 257.51L537.195 289.74Z" fill="#A3D6FE"/>
<path d="M574.599 310.76C551.982 311.101 533.371 293.042 533.031 270.426C532.69 247.809 550.749 229.198 573.365 228.857C595.982 228.517 614.593 246.575 614.934 269.192C615.274 291.809 597.216 310.42 574.599 310.76Z" fill="#2B78FB"/>
<path d="M599.145 287.82C599.145 287.82 589.396 328.77 567.597 337.091C545.797 345.411 491.814 353.461 491.814 353.461C491.814 353.461 477.253 357.398 475.81 355.75C474.207 353.91 488.42 345.682 488.42 345.682C488.42 345.682 472.972 354.207 470.908 352.053C467.84 348.87 486.262 338.746 486.262 338.746C486.262 338.746 471.257 344.88 470.438 342.797C469.214 339.664 489.19 328.861 492.448 327.588C495.706 326.316 554.77 307.981 554.77 307.981L563.422 280.943L599.145 287.82Z" fill="#A3D6FE"/>
<path d="M519.452 280.24C519.452 280.24 519.381 291.246 496.18 293.718C472.978 296.19 473.762 296.217 473.762 296.217C473.762 296.217 458.679 296.302 457.705 294.339C456.626 292.151 472.469 287.829 472.469 287.829C472.469 287.829 455.356 292.122 453.91 289.512C451.759 285.651 472.156 280.572 472.156 280.572C472.156 280.572 456.081 282.666 455.822 280.443C455.44 277.102 477.514 271.764 480.989 271.367C484.464 270.969 492.356 270.297 492.356 270.297L501.737 271.341L519.452 280.24Z" fill="#A3D6FE"/>
<path d="M675.211 428.162L665.746 475.189" stroke="white" stroke-miterlimit="10"/>
<path d="M559.961 499.165L511.247 508.069" stroke="white" stroke-miterlimit="10"/>
<path d="M561.229 415.054L564.145 364.857" stroke="white" stroke-miterlimit="10"/>
<path d="M568.611 262.569L554.543 307.922L529.865 316.186" stroke="#24292E" stroke-miterlimit="10"/>
<path d="M577.298 228.937L550.171 245.278L552.238 234.954C555.577 233.059 559.082 231.474 562.711 230.219C569.15 227.885 577.298 228.937 577.298 228.937Z" fill="#A3D6FE"/>
<path d="M521.005 290.491C522.504 297.993 523.581 308.386 518.504 317.493C513 324.999 508 328.999 500.936 333.06" stroke="#24292E" stroke-miterlimit="10"/>
<path d="M474.593 337.084C471.286 336.359 468.105 335.149 465.152 333.494C450.237 325.18 442.859 307.997 447.512 291.057L361.643 243.19C357.287 240.762 355.703 235.301 358.378 230.502C361.129 225.568 366.531 224.179 370.887 226.608L375.035 228.92L384.582 211.793L395.643 217.959L386.157 234.975L392.827 238.693L398.931 227.743L408.337 232.987L402.122 244.136L456.238 274.303C467.763 257.989 487.523 254.551 504.038 263.757C507.509 265.69 510.618 268.212 513.226 271.21" stroke="#24292E" stroke-miterlimit="10"/>
<path d="M500.423 307.711C505.274 299.008 502.152 288.021 493.45 283.17C484.747 278.319 473.76 281.441 468.909 290.143C464.058 298.846 467.18 309.833 475.882 314.684C484.585 319.535 495.572 316.413 500.423 307.711Z" stroke="#24292E" stroke-miterlimit="10"/>
<path d="M61.0319 245.456L31.7908 134.437L146.271 168.545L61.0319 245.456Z" fill="#24292E"/>
<path d="M80.913 137.4C89.3718 137.4 96.2289 130.543 96.2289 122.084C96.2289 113.626 89.3718 106.768 80.913 106.768C72.4543 106.768 65.5972 113.626 65.5972 122.084C65.5972 130.543 72.4543 137.4 80.913 137.4Z" fill="#2B78FB"/>
<path d="M80.4917 503.782C96.9399 503.782 110.274 490.448 110.274 473.999C110.274 457.551 96.9399 444.217 80.4917 444.217C64.0434 444.217 50.7095 457.551 50.7095 473.999C50.7095 490.448 64.0434 503.782 80.4917 503.782Z" fill="#FF5900"/>
<path d="M710.663 71.0013C720.038 71.0013 727.638 63.4014 727.638 54.0264C727.638 44.6514 720.038 37.0515 710.663 37.0515C701.288 37.0515 693.688 44.6514 693.688 54.0264C693.688 63.4014 701.288 71.0013 710.663 71.0013Z" fill="#2BD67B"/>
<path d="M129.45 298.975C129.45 308.074 122.074 315.45 112.975 315.45C103.876 315.45 96.5 308.074 96.5 298.975C96.5 289.876 103.876 282.5 112.975 282.5C122.074 282.5 129.45 289.876 129.45 298.975Z" stroke="#24292E"/>
<path d="M747.5 383C747.5 388.247 743.247 392.5 738 392.5C732.753 392.5 728.5 388.247 728.5 383C728.5 377.753 732.753 373.5 738 373.5C743.247 373.5 747.5 377.753 747.5 383Z" stroke="#24292E"/>
<path d="M600.338 11.7814L790.826 119.47L783.951 131.63L593.463 23.9381L600.338 11.7814ZM599.909 10.2406L591.922 24.3675L784.399 133.171L792.385 119.044L599.909 10.2406Z" fill="#24292E"/>
<path d="M779.854 284.945L724.356 337.339L699.41 310.916L727.159 284.719L702.209 258.296L729.958 232.099L779.854 284.945Z" fill="#F7B801"/>
<path d="M301.935 143.367V130.34H496.092V243.857H443.366" stroke="#E7E8F4"/>
<path d="M422.275 293.482V361.716H262.235V351.171" stroke="#E7E8F4"/>
<path d="M398.6 319.067C400.697 321.165 402.125 323.837 402.704 326.747C403.282 329.657 402.985 332.672 401.849 335.413C400.714 338.154 398.791 340.496 396.325 342.144C393.858 343.792 390.958 344.672 387.992 344.672C385.025 344.672 382.125 343.792 379.659 342.144C377.192 340.496 375.269 338.154 374.134 335.413C372.999 332.672 372.701 329.657 373.28 326.747C373.858 323.837 375.286 321.165 377.383 319.067" stroke="#E7E8F4" stroke-width="1.6" stroke-linecap="round" stroke-linejoin="round"/>
<path d="M388 311.333V328" stroke="#E7E8F4" stroke-width="1.6" stroke-linecap="round" stroke-linejoin="round"/>
<path d="M447.125 161.875L483.875 185.5L447.125 209.125V161.875Z" stroke="#E7E8F4" stroke-linecap="round" stroke-linejoin="round"/>
<path d="M349.5 153H402.5M349.5 163.5H388.5M349.5 174.5H370" stroke="#E7E8F4"/>
</g>
<defs>
<clipPath id="clip0">
<rect width="800" height="572" fill="white"/>
</clipPath>
</defs>
</svg>
