<svg width="592" height="323" viewBox="0 0 592 323" fill="none" xmlns="http://www.w3.org/2000/svg">
<path d="M261.698 19.2575C227.896 20.7086 172.102 31.9454 122.628 90.7169C73.1529 149.488 91.8731 233.629 125.971 268.361C160.068 303.092 252.338 319.786 293.796 289.062C335.255 258.337 322.076 221.603 349.622 209.21C403.951 184.765 440.896 150.156 418.165 92.7203C395.42 35.2908 323.876 16.5864 261.698 19.2575Z" fill="#2BD67B"/>
<path d="M173.486 146.771C173.755 96.1354 214.886 55.1709 265.584 55.1709C316.283 55.1709 357.414 96.1354 357.683 146.771L331.67 146.771C331.402 110.501 301.917 81.1827 265.584 81.1827C229.252 81.1827 199.767 110.501 199.498 146.771L173.486 146.771Z" stroke="#24292E"/>
<rect x="175.216" y="155.285" width="189.227" height="151.19" fill="white"/>
<path d="M235.771 283.892L235.54 284.556H236.243H293.402H294.111L293.873 283.888L275.136 231.411C282.979 227.587 288.386 219.535 288.386 210.221C288.386 197.208 277.835 186.659 264.822 186.659C251.809 186.659 241.261 197.208 241.261 210.221C241.261 219.354 246.457 227.273 254.053 231.182L235.771 283.892ZM378.936 144.438V317.946H150.709V144.438H378.936Z" fill="#24292E" stroke="#24292E"/>
<path d="M415.105 108.566C409.452 108.566 404.871 103.984 404.871 98.3314C404.871 92.6792 409.452 88.0972 415.105 88.0972C420.757 88.0972 425.339 92.6792 425.339 98.3314C425.339 103.984 420.757 108.566 415.105 108.566Z" fill="#A3D6FE"/>
<path d="M410.378 96.0972C409.549 96.0972 408.878 95.4257 408.878 94.5972C408.878 93.7688 409.549 93.0972 410.378 93.0972C411.206 93.0972 411.878 93.7688 411.878 94.5972C411.878 95.4257 411.206 96.0972 410.378 96.0972Z" fill="#24292E"/>
<path d="M405.943 96.2359C405.114 96.2359 404.443 95.5643 404.443 94.7359C404.443 93.9075 405.114 93.2359 405.943 93.2359C406.771 93.2359 407.443 93.9075 407.443 94.7359C407.443 95.5643 406.771 96.2359 405.943 96.2359Z" fill="#24292E"/>
<path d="M591.697 241.154L553.671 210.342L572.717 200.345L591.697 241.154Z" fill="#A3D6FE"/>
<path d="M483.837 322.097L505.549 278.232L519.485 294.623L483.837 322.097Z" fill="#A3D6FE"/>
<path d="M469.864 199.243C469.864 199.243 483.359 238.634 500.753 245.224C517.683 251.643 571.954 230.271 571.954 230.271L560.4 194.739L522.727 206.304C522.727 206.304 506.566 178.352 499.75 170.062C495.743 165.26 490.205 161.984 484.066 160.787L454.217 175.011C454.217 175.011 430.492 226.973 433.271 246.661C436.05 266.349 485.708 306.476 485.708 306.476L515.25 280.581L476.298 242.697L491.908 203.522L469.864 199.243Z" fill="#2B78FB"/>
<path d="M422.687 168.417L379.595 173.097V159.758C379.595 159.758 368.697 156.224 369.419 154.054C370.148 151.807 382.137 152.858 382.137 152.858L438.837 146.271L422.687 168.417Z" fill="#A3D6FE"/>
<path d="M437.156 167.097C421.444 167.097 408.707 154.36 408.707 138.648C408.707 122.936 421.444 110.2 437.156 110.2C452.868 110.2 465.604 122.936 465.604 138.648C465.604 154.36 452.868 167.097 437.156 167.097Z" fill="#2B78FB"/>
<path d="M454.444 151.421C454.444 151.421 447.244 179.76 432.017 185.311C416.79 190.862 379.212 195.888 379.212 195.888C379.212 195.888 369.058 198.47 368.073 197.31C366.979 196.016 376.936 190.45 376.936 190.45C376.936 190.45 366.118 196.209 364.707 194.692C362.61 192.449 375.51 185.61 375.51 185.61C375.51 185.61 365.024 189.713 364.477 188.258C363.66 186.07 377.647 178.775 379.923 177.925C382.199 177.075 423.413 164.959 423.413 164.959L429.705 146.271L454.444 151.421Z" fill="#A3D6FE"/>
<path d="M550.815 197.69L560.506 227.101" stroke="white" stroke-miterlimit="10"/>
<path d="M508.788 274.304L484.289 294.841" stroke="white" stroke-miterlimit="10"/>
<path d="M482.666 226.696L468.289 197.595" stroke="white" stroke-miterlimit="10"/>
<path d="M433.501 133.564L423.256 164.915L406.03 170.397" stroke="#24292E" stroke-miterlimit="10"/>
<path d="M424.985 112.928L414.346 132.13L412.095 125.171C413.443 122.597 414.443 121.097 416.837 118.749C419.948 115.149 424.985 112.928 424.985 112.928Z" fill="#A3D6FE"/>
<path d="M79.2543 101.119C79.2543 108.034 73.6482 113.64 66.7328 113.64C59.8175 113.64 54.2114 108.034 54.2114 101.119C54.2114 94.2033 59.8175 88.5973 66.7328 88.5973C73.6482 88.5973 79.2543 94.2033 79.2543 101.119Z" stroke="#24292E"/>
<path d="M373.256 6.37644C373.256 9.6219 370.625 12.2529 367.38 12.2529C364.134 12.2529 361.503 9.6219 361.503 6.37644C361.503 3.13097 364.134 0.5 367.38 0.5C370.625 0.5 373.256 3.13097 373.256 6.37644Z" stroke="#24292E"/>
<path d="M482.666 33.2509C487.127 33.2509 490.743 29.6348 490.743 25.1741C490.743 20.7134 487.127 17.0973 482.666 17.0973C478.205 17.0973 474.589 20.7134 474.589 25.1741C474.589 29.6348 478.205 33.2509 482.666 33.2509Z" fill="#2B78FB"/>
<path d="M156.885 20.6672L156.885 92.2605L94.8839 56.4638L156.885 20.6672Z" fill="#2B78FB"/>
<path d="M577.181 113.12L529.997 157.665L508.788 135.2L532.38 112.928L511.167 90.4632L534.759 68.1908L577.181 113.12Z" fill="#F7B801"/>
<path d="M0.149415 151.981L53.7115 151.981L53.7115 205.543C39.5061 205.543 25.8826 199.899 15.8378 189.855C5.79296 179.81 0.149707 166.186 0.149415 151.981V151.981Z" fill="#24292E"/>
<rect x="137.943" y="144.438" width="12.6031" height="173.508" stroke="#24292E"/>
<path fill-rule="evenodd" clip-rule="evenodd" d="M94.6817 192.86L94.6818 192.86C89.8191 189.376 86.394 184.238 85.0484 178.409C84.0533 174.099 84.2462 169.629 85.5644 165.464C84.2461 169.629 84.0532 174.099 85.0484 178.41C86.3939 184.238 89.8191 189.376 94.6817 192.86ZM37.864 268.887L37.864 268.887L41.7084 270.277L41.7085 270.277L37.864 268.887ZM31.4334 286.667L31.4334 286.668L37.2 288.753L37.2001 288.753L31.4334 286.667ZM38.5904 284.909L44.8376 287.168L44.8377 287.168L38.5904 284.909L38.5904 284.909ZM42.9158 290.714L42.9157 290.714L54.2825 294.351L54.2826 294.351L42.9158 290.714ZM49.7358 307.082L49.7358 307.082L64.3976 312.718L64.3977 312.718L49.7358 307.082ZM106.144 197.292C112.085 197.987 118.076 196.49 122.993 193.083C123.607 192.657 124.2 192.205 124.769 191.729C124.2 192.205 123.607 192.657 122.993 193.083C118.076 196.49 112.085 197.986 106.144 197.292L106.144 197.292ZM89.2948 194.331L63.0621 265.558L37.5679 256.337L25.6113 289.397L36.3523 293.282L36.3034 293.372L38.8934 294.201L39.9293 294.575L39.9433 294.537L48.4196 297.249L43.961 309.733L67.0957 318.627L109.274 202.004C115.079 201.948 120.765 200.158 125.582 196.821C131.409 192.784 135.563 186.76 137.266 179.879C138.97 172.998 138.105 165.733 134.834 159.444C131.564 153.155 126.112 148.275 119.5 145.718C112.889 143.161 105.572 143.103 98.9211 145.555C92.2702 148.007 86.7419 152.801 83.3724 159.038C80.003 165.274 79.0237 172.525 80.6182 179.432C81.9466 185.187 84.9854 190.373 89.2948 194.331ZM104.02 162.282C106.118 161.298 108.46 160.959 110.751 161.307C113.041 161.655 115.177 162.674 116.889 164.236C118.6 165.797 119.81 167.831 120.365 170.081C120.92 172.33 120.796 174.693 120.008 176.872C119.22 179.051 117.804 180.947 115.938 182.32C114.072 183.694 111.841 184.484 109.527 184.59C107.213 184.695 104.919 184.112 102.936 182.915C100.953 181.717 99.3696 179.958 98.3863 177.86C97.0676 175.047 96.9204 171.826 97.977 168.904C99.0336 165.983 101.207 163.601 104.02 162.282ZM102.091 158.165C105.002 156.8 108.254 156.329 111.433 156.812C114.613 157.295 117.578 158.709 119.953 160.877C122.329 163.045 124.008 165.869 124.779 168.991C125.261 170.942 125.374 172.956 125.124 174.93C125.374 172.956 125.261 170.942 124.779 168.991C124.008 165.869 122.329 163.045 119.953 160.877C117.578 158.709 114.613 157.294 111.433 156.812C108.254 156.329 105.003 156.8 102.091 158.165C101.504 158.44 100.937 158.749 100.392 159.088C100.937 158.749 101.504 158.44 102.091 158.165Z" fill="#FF5900"/>
</svg>
