<svg width="427" height="271" viewBox="0 0 427 271" fill="none" xmlns="http://www.w3.org/2000/svg">
<g clip-path="url(#clip0)">
<path d="M89.3213 230.048V23.0269C89.3223 22.1261 89.6802 21.2625 90.3166 20.6256C90.953 19.9886 91.8158 19.6304 92.7158 19.6294H282.353C283.253 19.6304 284.116 19.9886 284.752 20.6256C285.388 21.2625 285.746 22.1261 285.747 23.0269V230.048C285.746 230.949 285.388 231.812 284.752 232.449C284.116 233.086 283.253 233.444 282.353 233.445H92.7158C91.8158 233.444 90.953 233.086 90.3166 232.449C89.6802 231.812 89.3223 230.949 89.3213 230.048V230.048ZM92.7158 20.9884C92.1758 20.989 91.6581 21.2039 91.2763 21.5861C90.8944 21.9683 90.6797 22.4864 90.6791 23.0269V230.048C90.6797 230.588 90.8944 231.106 91.2763 231.489C91.6581 231.871 92.1758 232.086 92.7158 232.086H282.353C282.893 232.086 283.411 231.871 283.792 231.489C284.174 231.106 284.389 230.588 284.39 230.048V23.0269C284.389 22.4864 284.174 21.9683 283.792 21.5861C283.411 21.2039 282.893 20.989 282.353 20.9884H92.7158Z" fill="#E7E8F4"/>
<path d="M27.4512 144.607V56.8437C27.4522 55.9998 27.7875 55.1908 28.3837 54.594C28.9799 53.9973 29.7883 53.6616 30.6314 53.6606H138.76C139.603 53.6616 140.412 53.9972 141.008 54.594C141.604 55.1907 141.94 55.9998 141.941 56.8437V144.607C141.94 145.45 141.604 146.26 141.008 146.856C140.412 147.453 139.603 147.789 138.76 147.79H30.6314C29.7883 147.789 28.98 147.453 28.3838 146.856C27.7876 146.259 27.4522 145.45 27.4512 144.607V144.607ZM30.6314 54.5701C30.0292 54.5708 29.4518 54.8106 29.0259 55.2368C28.6001 55.663 28.3605 56.2409 28.3598 56.8437V144.607C28.3605 145.209 28.6001 145.787 29.0259 146.213C29.4518 146.64 30.0292 146.879 30.6314 146.88H138.76C139.363 146.879 139.94 146.64 140.366 146.213C140.792 145.787 141.031 145.209 141.032 144.607V56.8437C141.031 56.241 140.792 55.6631 140.366 55.2368C139.94 54.8106 139.363 54.5708 138.76 54.5701L30.6314 54.5701Z" fill="#E7E8F4"/>
<path fill-rule="evenodd" clip-rule="evenodd" d="M187.296 30.0796C167.213 34.0368 148.713 43.7461 134.047 58.026C119.381 72.3059 109.182 90.5406 104.69 110.511C100.199 130.482 101.609 151.328 108.749 170.512C115.889 189.696 128.451 206.391 144.906 218.565C161.361 230.74 181.001 237.87 201.434 239.086C221.867 240.303 242.214 235.554 259.997 225.418C275.998 216.298 289.304 203.171 298.632 187.373L398.792 230.055L398.792 230.055C400.72 230.832 402.782 231.222 404.861 231.202C406.939 231.182 408.994 230.752 410.907 229.938C412.82 229.124 414.553 227.941 416.009 226.457C417.465 224.973 418.614 223.216 419.39 221.288C420.167 219.36 420.557 217.298 420.536 215.219C420.516 213.14 420.086 211.086 419.272 209.173C418.458 207.26 417.274 205.527 415.79 204.071C414.306 202.616 412.549 201.467 410.621 200.691L310.462 158.008C316.024 134.515 313.378 109.753 302.854 87.8871C291.439 64.1714 271.58 45.5729 247.167 35.7367C228.18 28.0878 207.38 26.1223 187.296 30.0796ZM158.637 85.6821C167.966 76.1702 179.905 69.6381 192.946 66.9118C205.986 64.1854 219.543 65.3873 231.9 70.3655C248.472 77.0411 261.712 90.026 268.709 106.464C275.706 122.902 275.887 141.446 269.212 158.017C264.233 170.375 255.703 180.979 244.698 188.488C233.693 195.997 220.709 200.075 207.387 200.204C194.065 200.334 181.003 196.511 169.854 189.217C158.705 181.924 149.969 171.488 144.751 159.23C139.533 146.972 138.067 133.441 140.539 120.35C143.011 107.258 149.309 95.194 158.637 85.6821Z" fill="#2BD67B"/>
<path d="M208.047 104.498C213.914 104.498 218.67 99.7422 218.67 93.8754C218.67 88.0087 213.914 83.2527 208.047 83.2527C202.18 83.2527 197.424 88.0087 197.424 93.8754C197.424 99.7422 202.18 104.498 208.047 104.498Z" fill="#A3D6FE"/>
<path d="M209.687 91.0356C210.45 91.0356 211.069 90.4167 211.069 89.6533C211.069 88.8899 210.45 88.271 209.687 88.271C208.923 88.271 208.304 88.8899 208.304 89.6533C208.304 90.4167 208.923 91.0356 209.687 91.0356Z" fill="#24292E"/>
<path d="M213.888 89.6533C214.651 89.6533 215.27 89.0345 215.27 88.271C215.27 87.5076 214.651 86.8887 213.888 86.8887C213.124 86.8887 212.505 87.5076 212.505 88.271C212.505 89.0345 213.124 89.6533 213.888 89.6533Z" fill="#24292E"/>
<path d="M225.815 203.81C225.815 203.81 163.105 142.024 144.398 170.032C135.222 183.769 149.272 202.771 168.757 212.186C189.854 222.385 217.063 222.341 217.063 222.341L225.399 197.274L225.815 203.81Z" fill="#24292E"/>
<path d="M193.44 203.81C193.44 203.81 256.146 142.024 274.854 170.032C284.033 183.769 269.979 202.771 250.498 212.186C229.401 222.385 202.564 222.569 202.564 222.569L193.853 197.274L193.44 203.81Z" fill="#24292E"/>
<path d="M230.583 168.644H187.535V189.944H230.583V168.644Z" fill="#24292E"/>
<path d="M220.605 206.199L221.349 205.802L222.494 217.922L234.464 200.93L222.302 198.721L220.605 206.199Z" fill="#A3D6FE"/>
<path d="M215.995 221.626L222.494 196.475L163.959 174.874" stroke="white" stroke-miterlimit="10"/>
<path d="M255.874 171.59L209.059 191.516" stroke="white" stroke-miterlimit="10"/>
<path d="M207.196 201.365L202.24 221.626" stroke="white" stroke-miterlimit="10"/>
<path d="M208.047 162.382C222.705 162.382 234.589 150.499 234.589 135.841C234.589 121.182 222.705 109.299 208.047 109.299C193.388 109.299 181.505 121.182 181.505 135.841C181.505 150.499 193.388 162.382 208.047 162.382Z" fill="#2B78FB"/>
<path d="M194.235 116.597C194.235 116.597 163.715 117.901 157.048 124.421C150.38 130.942 148.48 161.785 148.48 161.785C148.48 161.785 142.845 168.028 143.972 168.952C145.099 169.876 151.752 162.826 151.752 162.826C151.752 162.826 144.874 170.338 146.117 171.495C147.36 172.652 155.925 162.826 155.925 162.826C155.925 162.826 152.206 169.414 153.784 170.109C155.361 170.804 159.343 162.134 162.648 162.364C165.954 162.593 167.532 165.718 169.564 165.14C171.596 164.561 165.21 159.129 165.21 159.129L170.296 136.592L189.712 135.668L194.235 116.597Z" fill="#A3D6FE"/>
<path d="M224.131 116.59C224.131 116.59 254.512 117.893 261.131 124.414C267.749 130.935 269.657 161.778 269.657 161.778C269.657 161.778 275.266 168.021 274.146 168.945C273.027 169.869 266.405 162.818 266.405 162.818C266.405 162.818 273.248 170.331 272.013 171.488C270.777 172.645 262.246 162.818 262.246 162.818C262.246 162.818 265.946 169.407 264.376 170.102C262.806 170.797 258.843 162.127 255.553 162.356C252.262 162.585 250.669 165.711 248.671 165.132C246.673 164.554 253.002 159.122 253.002 159.122L247.939 136.584L228.639 135.66L224.131 116.59Z" fill="#A3D6FE"/>
<path d="M171.314 138.064L170.232 116.597L208.471 111.654L243.923 116.222L244.096 137.862L171.314 138.064Z" fill="#2B78FB"/>
<path d="M202.72 109.836L208.903 124.861L213.888 109.937C213.888 109.937 209.519 108.506 202.72 109.836Z" fill="#A3D6FE"/>
<path d="M396.805 147.15L335.685 147.15L335.685 86.0298C351.895 86.0298 367.441 92.4692 378.903 103.931C390.365 115.394 396.805 130.94 396.805 147.15V147.15Z" fill="#2B78FB"/>
<path d="M300.984 210.971L335.684 247.728L318.184 264.25L300.834 245.872L283.334 262.396L265.983 244.018L300.984 210.971Z" fill="#F7B801"/>
<path d="M321.407 36.0458C325.941 36.0458 329.616 32.3709 329.616 27.8376C329.616 23.3043 325.941 19.6294 321.407 19.6294C316.874 19.6294 313.199 23.3043 313.199 27.8376C313.199 32.3709 316.874 36.0458 321.407 36.0458Z" fill="#24292E"/>
<path d="M30.4564 211.241C41.3502 211.241 50.1813 202.41 50.1813 191.516C50.1813 180.622 41.3502 171.791 30.4564 171.791C19.5626 171.791 10.7314 180.622 10.7314 191.516C10.7314 202.41 19.5626 211.241 30.4564 211.241Z" fill="#FF5900"/>
<path d="M66.9091 39.0511C68.5689 39.0511 69.9144 37.7056 69.9144 36.0458C69.9144 34.3861 68.5689 33.0405 66.9091 33.0405C65.2493 33.0405 63.9038 34.3861 63.9038 36.0458C63.9038 37.7056 65.2493 39.0511 66.9091 39.0511Z" fill="#2B78FB"/>
<path d="M83.5688 88.271L46.4885 109.679L46.4885 66.8627L83.5688 88.271Z" fill="#24292E"/>
<path d="M115.529 254.582C115.529 259.829 111.276 264.082 106.029 264.082C100.782 264.082 96.5288 259.829 96.5288 254.582C96.5288 249.335 100.782 245.082 106.029 245.082C111.276 245.082 115.529 249.335 115.529 254.582Z" stroke="#24292E"/>
</g>
<defs>
<clipPath id="clip0">
<rect width="427" height="271" fill="white"/>
</clipPath>
</defs>
</svg>
