<svg width="515" height="329" viewBox="0 0 515 329" fill="none" xmlns="http://www.w3.org/2000/svg">
<path d="M502.696 141.297C502.696 148.213 497.09 153.819 490.174 153.819C483.259 153.819 477.653 148.213 477.653 141.297C477.653 134.382 483.259 128.776 490.174 128.776C497.09 128.776 502.696 134.382 502.696 141.297Z" stroke="#24292E"/>
<path d="M48.1567 226.473C48.1567 229.718 45.5257 232.349 42.2802 232.349C39.0348 232.349 36.4038 229.718 36.4038 226.473C36.4038 223.227 39.0348 220.596 42.2802 220.596C45.5257 220.596 48.1567 223.227 48.1567 226.473Z" stroke="#24292E"/>
<path d="M490.272 29.6536C494.733 29.6536 498.349 26.0375 498.349 21.5768C498.349 17.1161 494.733 13.5 490.272 13.5C485.811 13.5 482.195 17.1161 482.195 21.5768C482.195 26.0375 485.811 29.6536 490.272 29.6536Z" fill="#2BD67B"/>
<path d="M102.644 163.134C114.617 163.134 124.324 153.427 124.324 141.454C124.324 129.48 114.617 119.774 102.644 119.774C90.6702 119.774 80.9639 129.48 80.9639 141.454C80.9639 153.427 90.6702 163.134 102.644 163.134Z" fill="#FF5900"/>
<path d="M77.3264 236.513L77.3264 308.106L15.3248 272.309L77.3264 236.513Z" fill="#2B78FB"/>
<path d="M503.588 72.0323L456.404 116.577L435.195 94.1125L458.787 71.8401L437.575 49.3755L461.167 27.1031L503.588 72.0323Z" fill="#F7B801"/>
<path d="M388.928 163.17H101.012V285.366H388.928V163.17Z" fill="#24292E"/>
<rect x="141.195" y="41.5" width="248" height="159" fill="white"/>
<path d="M265.087 145.56L265.408 145.828L265.729 145.56L405.993 28.1279L405.993 216.816L124.824 216.816L124.824 28.1278L265.087 145.56ZM125.7 27.5571L405.117 27.5571L265.408 144.524L125.7 27.5571Z" stroke="#24292E"/>
<path d="M124.325 217.065L224.086 119.808" stroke="#24292E"/>
<path d="M406.235 217.065L306.473 119.808" stroke="#24292E"/>
<rect x="424.695" y="27.5571" width="189.259" height="18.516" transform="rotate(90 424.695 27.5571)" fill="#E6F4FF" stroke="#24292E"/>
<path d="M301.711 219.797C321.463 219.797 337.475 203.785 337.475 184.033C337.475 164.281 321.463 148.269 301.711 148.269C281.959 148.269 265.946 164.281 265.946 184.033C265.946 203.785 281.959 219.797 301.711 219.797Z" fill="#2B78FB"/>
<path d="M311.678 137.254C318.473 137.254 323.981 131.746 323.981 124.951C323.981 118.156 318.473 112.648 311.678 112.648C304.884 112.648 299.375 118.156 299.375 124.951C299.375 131.746 304.884 137.254 311.678 137.254Z" fill="#A3D6FE"/>
<path d="M273.333 183.002C271.578 183.161 226.663 175.961 219.525 166.316C213.072 157.602 200.703 116.478 200.703 116.478C200.703 116.478 182.118 101.128 183.916 99.7694C185.512 98.5629 195.511 102.027 195.511 102.027C195.511 102.027 183.835 96.718 185.053 94.3205C186.271 91.923 212.757 101.906 212.757 101.906C212.757 101.906 213.076 93.8418 215.75 93.2035C218.424 92.5652 220.981 104.171 220.899 107.923C220.817 111.675 242.368 146.245 242.368 146.245L289.213 156.866" fill="#A3D6FE"/>
<path d="M292.502 153.153L261.124 147.311L253.698 182.196L279.686 189.229" fill="#2B78FB"/>
<path d="M452.498 186.378H161.897L100.519 286.708H391.12L452.498 186.378Z" fill="#2BD67B"/>
<path d="M367.86 186.753H380.794C380.794 186.753 372.893 201.485 375.049 202.442C377.205 203.4 391.933 186.753 391.933 186.753C391.933 186.753 377.801 205.315 380.794 206.393C383.787 207.471 400.437 188.91 400.437 188.91C400.437 188.91 389.777 200.407 392.532 202.084C395.288 203.762 410.015 188.431 408.7 185.317C407.384 182.204 400.316 178.849 387.383 178.849C374.45 178.849 367.86 186.753 367.86 186.753Z" fill="#A3D6FE"/>
<path d="M297.087 148.191L293.016 169.15L316.703 151.48C316.703 151.48 308.821 147.113 297.087 148.191Z" fill="#A3D6FE"/>
<path d="M301.726 147.886C301.726 147.886 283.994 146.928 273.119 162.185" stroke="#24292E" stroke-miterlimit="10"/>
<path d="M313.918 123.678C314.871 123.678 315.643 122.905 315.643 121.952C315.643 121 314.871 120.227 313.918 120.227C312.965 120.227 312.193 121 312.193 121.952C312.193 122.905 312.965 123.678 313.918 123.678Z" fill="#24292E"/>
<path d="M308.072 119.268C309.025 119.268 309.798 118.495 309.798 117.543C309.798 116.59 309.025 115.817 308.072 115.817C307.12 115.817 306.347 116.59 306.347 117.543C306.347 118.495 307.12 119.268 308.072 119.268Z" fill="#24292E"/>
<path d="M259.843 186.146H356.846" stroke="#24292E" stroke-miterlimit="10"/>
<path d="M423.591 232.849L477.153 232.849L477.153 286.411C462.948 286.411 449.324 280.768 439.279 270.724C429.234 260.679 423.591 247.055 423.591 232.849V232.849Z" fill="#24292E"/>
<rect x="112.441" y="22.8019" width="12.6031" height="169.038" transform="rotate(21.7923 112.441 22.8019)" stroke="#24292E"/>
</svg>
