<svg width="674" height="435" viewBox="0 0 674 435" fill="none" xmlns="http://www.w3.org/2000/svg">
<g clip-path="url(#clip0)">
<rect width="674" height="435" fill="white"/>
<rect x="146.562" y="42.642" width="405.784" height="278.595" stroke="#24292E" stroke-width="1.05289"/>
<rect x="311.655" y="320.605" width="75.5975" height="113.502" stroke="#24292E" stroke-width="1.05289"/>
<rect x="528.129" y="42.642" width="24.2165" height="278.595" fill="#E6F4FF" stroke="#24292E" stroke-width="1.05289"/>
<rect x="363.036" y="320.605" width="24.2165" height="113.502" fill="#E6F4FF" stroke="#24292E" stroke-width="1.05289"/>
<path d="M167.935 64.0157H512.441V301.548H167.935V64.0157Z" fill="white"/>
<path d="M167.935 64.0157H512.441V83.3889H167.935V64.0157Z" fill="#E6F4FF"/>
<path d="M244.79 111.394C251.745 111.395 258.515 113.634 264.098 117.781C269.682 121.929 273.781 127.763 275.791 134.422C277.801 141.08 277.613 148.208 275.257 154.752C272.9 161.296 268.5 166.907 262.706 170.755L262.037 171.2L262.293 171.96L294.069 267.364H276.639L246.51 176.872L244.906 172.048C249.959 168.516 253.974 163.695 256.532 158.086C259.091 152.476 260.099 146.283 259.452 140.152C258.806 134.021 256.528 128.175 252.855 123.223C249.183 118.27 244.251 114.393 238.571 111.993C240.626 111.595 242.714 111.394 244.808 111.394H244.79ZM244.808 110.343C241.483 110.342 238.177 110.836 234.998 111.811C241.049 113.672 246.448 117.213 250.566 122.022C254.684 126.831 257.352 132.71 258.261 138.976C259.169 145.241 258.28 151.636 255.697 157.416C253.114 163.196 248.943 168.125 243.669 171.628L245.526 177.205L275.914 268.415H295.564L263.333 171.628C269.316 167.655 273.86 161.862 276.294 155.106C278.727 148.35 278.921 140.99 276.846 134.115C274.771 127.24 270.538 121.216 264.772 116.935C259.007 112.653 252.017 110.342 244.836 110.343H244.808Z" fill="#24292E"/>
<path d="M224.435 177.205L226.292 171.628C221.019 168.124 216.848 163.196 214.265 157.415C211.682 151.635 210.793 145.24 211.702 138.974C212.61 132.709 215.279 126.83 219.398 122.021C223.516 117.212 228.915 113.672 234.967 111.811C241.018 113.672 246.417 117.213 250.535 122.022C254.653 126.831 257.321 132.71 258.229 138.976C259.137 145.241 258.248 151.636 255.665 157.416C253.082 163.196 248.911 168.125 243.637 171.628L245.494 177.205L275.883 268.415H194.047L224.435 177.205Z" fill="#2BD67B"/>
<path d="M498.093 77.4855C495.984 77.4855 494.306 75.7649 494.306 73.7002C494.306 71.6355 495.683 70.0009 498.093 69.9149C500.201 69.8288 501.879 71.6355 501.879 73.7002C501.879 75.7649 500.201 77.4855 498.093 77.4855Z" fill="#255AFA"/>
<path d="M484.839 77.4855C482.73 77.4855 481.052 75.7649 481.052 73.7002C481.052 71.6355 482.429 70.0009 484.839 69.9149C486.947 69.8288 488.626 71.6355 488.626 73.7002C488.626 75.7649 486.904 77.4855 484.839 77.4855Z" fill="#255AFA"/>
<path d="M471.585 77.4855C469.477 77.4855 467.799 75.7649 467.799 73.7002C467.799 71.6355 469.176 70.0009 471.585 69.9149C473.694 69.8288 475.372 71.6355 475.372 73.7002C475.372 75.7649 473.694 77.4855 471.585 77.4855Z" fill="#255AFA"/>
<path d="M474.03 165.943C464.903 166.081 457.392 158.793 457.255 149.666C457.117 140.538 464.405 133.028 473.532 132.891C482.66 132.753 490.17 140.041 490.308 149.168C490.445 158.295 483.157 165.806 474.03 165.943Z" fill="#A3D6FE"/>
<path d="M464.292 145.741C463.133 145.759 462.179 144.833 462.161 143.674C462.144 142.515 463.07 141.561 464.229 141.543C465.388 141.526 466.342 142.452 466.359 143.611C466.377 144.77 465.451 145.724 464.292 145.741Z" fill="#090928"/>
<path d="M457.133 146.073C455.973 146.09 455.019 145.164 455.002 144.005C454.985 142.846 455.91 141.892 457.069 141.875C458.229 141.857 459.183 142.783 459.2 143.942C459.218 145.101 458.292 146.055 457.133 146.073Z" fill="#090928"/>
<path d="M581.937 408.467L559.672 351.556L586.516 352.456L581.937 408.467Z" fill="#A3D6FE"/>
<path d="M414.906 429.775L465.543 395.557L470.557 421.948L414.906 429.775Z" fill="#A3D6FE"/>
<path d="M475.548 287.794C475.548 287.794 465.89 338.88 480.705 356.767C495.122 374.182 567.222 384.471 567.222 384.471L576.605 338.771L528.575 328.079C528.575 328.079 528.28 287.764 525.996 274.558C524.61 266.873 523.97 262.736 514.695 254.813C505.421 246.89 481.075 248.378 473.516 251.834C465.957 255.291 415.698 293.6 406.566 316.686C397.434 339.773 426.577 413.973 426.577 413.973L474.625 404.093L455.718 338.933L496.837 306.041L475.548 287.794Z" fill="#2B78FB"/>
<path d="M453.131 224.484L407.008 227.326L395.322 214.244C395.322 214.244 390.273 211.28 391.073 208.749C391.881 206.13 405.809 207.139 405.809 207.139L471.483 198.506L453.131 224.484Z" fill="#A3D6FE"/>
<path d="M483.281 241.428C465.051 241.702 450.05 227.146 449.775 208.916C449.501 190.686 464.057 175.685 482.287 175.41C500.517 175.136 515.518 189.692 515.793 207.922C516.067 226.152 501.511 241.153 483.281 241.428Z" fill="#2B78FB"/>
<path d="M503.067 222.937C503.067 222.937 495.208 255.944 477.637 262.651C460.066 269.358 416.552 275.846 416.552 275.846C416.552 275.846 404.816 279.02 403.653 277.692C402.361 276.208 413.816 269.576 413.816 269.576C413.816 269.576 401.365 276.448 399.701 274.712C397.228 272.146 412.077 263.986 412.077 263.986C412.077 263.986 399.982 268.93 399.322 267.251C398.336 264.726 414.438 256.018 417.063 254.992C419.689 253.966 467.298 239.188 467.298 239.188L474.272 217.394L503.067 222.937Z" fill="#A3D6FE"/>
<path d="M438.83 216.827C438.83 216.827 438.773 225.699 420.071 227.691C401.369 229.684 402.001 229.706 402.001 229.706C402.001 229.706 389.844 229.774 389.059 228.192C388.189 226.428 400.959 222.945 400.959 222.945C400.959 222.945 387.165 226.405 386 224.301C384.266 221.188 400.707 217.095 400.707 217.095C400.707 217.095 387.75 218.783 387.541 216.991C387.233 214.298 405.026 209.995 407.827 209.675C410.628 209.354 416.989 208.812 416.989 208.812L424.551 209.654L438.83 216.827Z" fill="#A3D6FE"/>
<path d="M564.38 336.059L556.75 373.965" stroke="#24292E" stroke-width="1.30451" stroke-miterlimit="10"/>
<path d="M471.482 393.291L432.216 400.468" stroke="#24292E" stroke-width="1.30451" stroke-miterlimit="10"/>
<path d="M472.504 325.494L474.855 285.032" stroke="#24292E" stroke-width="1.30451" stroke-miterlimit="10"/>
<path d="M478.455 202.583L467.115 239.14L447.224 245.801" stroke="#24292E" stroke-width="1.21236" stroke-miterlimit="10"/>
<path d="M485.457 175.474L463.591 188.646L465.257 180.324C467.948 178.797 470.774 177.519 473.698 176.508C478.889 174.626 485.457 175.474 485.457 175.474Z" fill="#A3D6FE"/>
<path d="M438.506 232.695C437.861 238.066 437.638 240.87 434.646 246.239C431.139 252.53 428.792 254.099 423.686 257.608" stroke="#24292E" stroke-width="1.20777" stroke-miterlimit="10"/>
<path d="M405.489 260.387C403.205 259.886 401.008 259.051 398.968 257.908C388.666 252.164 383.569 240.295 386.783 228.594L327.468 195.529C324.459 193.852 323.365 190.08 325.213 186.765C327.113 183.357 330.845 182.398 333.854 184.075L336.719 185.672L343.314 173.842L350.954 178.101L344.402 189.855L349.009 192.423L353.226 184.859L359.723 188.481L355.429 196.183L392.811 217.021C400.772 205.752 414.421 203.377 425.829 209.736C428.227 211.072 430.374 212.814 432.176 214.884" stroke="#24292E" stroke-width="1.20777" stroke-miterlimit="10"/>
<path d="M423.332 240.098C426.683 234.086 424.526 226.497 418.515 223.146C412.504 219.795 404.914 221.952 401.563 227.963C398.212 233.974 400.369 241.564 406.38 244.915C412.392 248.266 419.981 246.109 423.332 240.098Z" stroke="#24292E" stroke-width="1.20777" stroke-miterlimit="10"/>
<path d="M181.412 434.323C181.443 398.642 210.393 369.735 246.074 369.775C281.755 369.815 310.662 398.756 310.625 434.44L181.412 434.323Z" fill="#DAEAF8"/>
<path d="M70.1269 264.64L17.9077 188.242L114.06 183.192L70.1269 264.64Z" fill="#2B78FB"/>
<rect x="9.5613" y="173.254" width="149.652" height="14.951" transform="rotate(-30 9.5613 173.254)" stroke="#24292E" stroke-width="1.05289"/>
<path opacity="0.4" d="M47.9011 277.172C44.1444 279.367 40.549 281.828 37.142 284.534C29.2919 290.761 22.504 298.221 17.0428 306.621C-10.9108 349.531 1.21371 406.974 44.1262 434.927L68.6261 397.316C58.3454 390.24 51.2354 379.429 48.812 367.186C46.3886 354.944 48.8436 342.239 55.6536 331.781C62.4636 321.322 73.0897 313.938 85.2662 311.202C97.4427 308.467 110.206 310.596 120.835 317.136L145.339 279.528C114.932 259.72 77.2234 260.038 47.9011 277.172Z" fill="#CCDAE6"/>
<path d="M65.7263 185.572C72.5445 185.572 78.0717 180.045 78.0717 173.227C78.0717 166.409 72.5445 160.882 65.7263 160.882C58.9082 160.882 53.381 166.409 53.381 173.227C53.381 180.045 58.9082 185.572 65.7263 185.572Z" fill="#24292E"/>
<path d="M118.66 96.8659C133.779 96.8659 146.035 84.6096 146.035 69.4907C146.035 54.3719 133.779 42.1156 118.66 42.1156C103.541 42.1156 91.285 54.3719 91.285 69.4907C91.285 84.6096 103.541 96.8659 118.66 96.8659Z" fill="#F7B801"/>
<path d="M143.087 369.775C156.345 369.775 167.093 359.027 167.093 345.769C167.093 332.511 156.345 321.763 143.087 321.763C129.829 321.763 119.081 332.511 119.081 345.769C119.081 359.027 129.829 369.775 143.087 369.775Z" fill="#F7B801"/>
<rect x="74.55" y="315.514" width="151.433" height="14.951" transform="rotate(45 74.55 315.514)" stroke="#24292E" stroke-width="1.05289"/>
<path d="M553.77 321.353C553.798 288.977 580.067 262.748 612.442 262.784C644.817 262.821 671.047 289.08 671.014 321.459L553.77 321.353Z" fill="#E5EBF2"/>
<path d="M592.148 48.976C599.705 48.976 605.831 42.8501 605.831 35.2934C605.831 27.7367 599.705 21.6108 592.148 21.6108C584.591 21.6108 578.466 27.7367 578.466 35.2934C578.466 42.8501 584.591 48.976 592.148 48.976Z" fill="#2BD67B"/>
<path d="M503.221 1.24194L656.763 88.0441L651.221 97.846L497.679 11.0408L503.221 1.24194ZM502.875 0L496.437 11.387L651.583 99.088L658.02 87.701L502.875 0Z" fill="#170C2C"/>
<path d="M569.298 161.165L568.191 173.284L651.945 180.936L653.052 168.816L569.298 161.165Z" fill="#2BD67B"/>
<path d="M648.725 220.619L603.991 262.851L583.883 241.553L606.25 220.437L586.139 199.138L608.506 178.022L648.725 220.619Z" fill="#F7B801"/>
<path d="M263.5 106.5V96H420V187.5H377.5" stroke="#E7E8F4" stroke-width="1.25"/>
<path d="M360.5 227.5V282.5H231.5V274" stroke="#E7E8F4" stroke-width="1.25"/>
</g>
<defs>
<clipPath id="clip0">
<rect width="674" height="435" fill="white"/>
</clipPath>
</defs>
</svg>
